<?xml version="1.0" encoding="UTF-8" standalone="no"?>
<!DOCTYPE svg PUBLIC "-//W3C//DTD SVG 1.1//EN"
 "http://www.w3.org/Graphics/SVG/1.1/DTD/svg11.dtd">
<!-- Generated by graphviz version 2.40.1 (20161225.0304)
 -->
<!-- Title: G Pages: 1 -->
<svg width="1041pt" height="892pt"
 viewBox="0.00 0.00 1041.43 892.00" xmlns="http://www.w3.org/2000/svg" xmlns:xlink="http://www.w3.org/1999/xlink">
<g id="graph0" class="graph" transform="scale(1 1) rotate(0) translate(4 888)">
<title>G</title>
<polygon fill="#ffffff" stroke="transparent" points="-4,4 -4,-888 1037.4253,-888 1037.4253,4 -4,4"/>
<g id="clust1" class="cluster">
<title>cluster_root</title>
<g id="a_clust1"><a xlink:title="eventq_index=0&#10;full_system=false&#10;sim_quantum=0&#10;time_sync_enable=false&#10;time_sync_period=100000000000&#10;time_sync_spin_threshold=100000000">
<path fill="#bab6ae" stroke="#000000" d="M20,-8C20,-8 1002,-8 1002,-8 1008,-8 1014,-14 1014,-20 1014,-20 1014,-864 1014,-864 1014,-870 1008,-876 1002,-876 1002,-876 20,-876 20,-876 14,-876 8,-870 8,-864 8,-864 8,-20 8,-20 8,-14 14,-8 20,-8"/>
<text text-anchor="middle" x="511" y="-860.8" font-family="Arial" font-size="14.00" fill="#000000">root </text>
<text text-anchor="middle" x="511" y="-845.8" font-family="Arial" font-size="14.00" fill="#000000">: Root</text>
</a>
</g>
</g>
<g id="clust2" class="cluster">
<title>cluster_system</title>
<g id="a_clust2"><a xlink:title="boot_osflags=a&#10;cache_line_size=64&#10;clk_domain=system.clk_domain&#10;default_p_state=UNDEFINED&#10;eventq_index=0&#10;exit_on_work_items=false&#10;init_param=0&#10;kernel=&#10;kernel_addr_check=true&#10;kvm_vm=Null&#10;load_addr_mask=1099511627775&#10;load_offset=0&#10;mem_mode=atomic&#10;mem_ranges=0:536870911:0:0:0:0&#10;memories=system.mem_ctrls&#10;mmap_using_noreserve=false&#10;multi_thread=false&#10;num_work_ids=16&#10;p_state_clk_gate_bins=20&#10;p_state_clk_gate_max=1000000000000&#10;p_state_clk_gate_min=1000&#10;power_model=Null&#10;readfile=&#10;symbolfile=&#10;thermal_components=&#10;thermal_model=Null&#10;work_begin_ckpt_count=0&#10;work_begin_cpu_id_exit=&#45;1&#10;work_begin_exit_count=0&#10;work_cpus_ckpt_count=0&#10;work_end_ckpt_count=0&#10;work_end_exit_count=0&#10;work_item_id=&#45;1">
<path fill="#e4e7eb" stroke="#000000" d="M28,-16C28,-16 994,-16 994,-16 1000,-16 1006,-22 1006,-28 1006,-28 1006,-818 1006,-818 1006,-824 1000,-830 994,-830 994,-830 28,-830 28,-830 22,-830 16,-824 16,-818 16,-818 16,-28 16,-28 16,-22 22,-16 28,-16"/>
<text text-anchor="middle" x="511" y="-814.8" font-family="Arial" font-size="14.00" fill="#000000">system </text>
<text text-anchor="middle" x="511" y="-799.8" font-family="Arial" font-size="14.00" fill="#000000">: System</text>
</a>
</g>
</g>
<g id="clust3" class="cluster">
<title>cluster_system_membus</title>
<g id="a_clust3"><a xlink:title="clk_domain=system.clk_domain&#10;default_p_state=UNDEFINED&#10;eventq_index=0&#10;forward_latency=4&#10;frontend_latency=3&#10;p_state_clk_gate_bins=20&#10;p_state_clk_gate_max=1000000000000&#10;p_state_clk_gate_min=1000&#10;point_of_coherency=true&#10;power_model=Null&#10;response_latency=2&#10;snoop_filter=system.membus.snoop_filter&#10;snoop_response_latency=4&#10;system=system&#10;use_default_range=false&#10;width=16">
<path fill="#6f798c" stroke="#000000" d="M637,-608C637,-608 761,-608 761,-608 767,-608 773,-614 773,-620 773,-620 773,-687 773,-687 773,-693 767,-699 761,-699 761,-699 637,-699 637,-699 631,-699 625,-693 625,-687 625,-687 625,-620 625,-620 625,-614 631,-608 637,-608"/>
<text text-anchor="middle" x="699" y="-683.8" font-family="Arial" font-size="14.00" fill="#000000">membus </text>
<text text-anchor="middle" x="699" y="-668.8" font-family="Arial" font-size="14.00" fill="#000000">: SystemXBar</text>
</a>
</g>
</g>
<g id="clust5" class="cluster">
<title>cluster_system_tol2bus</title>
<g id="a_clust5"><a xlink:title="clk_domain=system.cpu_clk_domain&#10;default_p_state=UNDEFINED&#10;eventq_index=0&#10;forward_latency=0&#10;frontend_latency=1&#10;p_state_clk_gate_bins=20&#10;p_state_clk_gate_max=1000000000000&#10;p_state_clk_gate_min=1000&#10;point_of_coherency=false&#10;power_model=Null&#10;response_latency=1&#10;snoop_filter=system.tol2bus.snoop_filter&#10;snoop_response_latency=1&#10;system=system&#10;use_default_range=false&#10;width=32">
<path fill="#6f798c" stroke="#000000" d="M673,-155C673,-155 797,-155 797,-155 803,-155 809,-161 809,-167 809,-167 809,-234 809,-234 809,-240 803,-246 797,-246 797,-246 673,-246 673,-246 667,-246 661,-240 661,-234 661,-234 661,-167 661,-167 661,-161 667,-155 673,-155"/>
<text text-anchor="middle" x="735" y="-230.8" font-family="Arial" font-size="14.00" fill="#000000">tol2bus </text>
<text text-anchor="middle" x="735" y="-215.8" font-family="Arial" font-size="14.00" fill="#000000">: L2XBar</text>
</a>
</g>
</g>
<g id="clust9" class="cluster">
<title>cluster_system_l2</title>
<g id="a_clust9"><a xlink:title="addr_ranges=0:18446744073709551615:0:0:0:0&#10;assoc=8&#10;clk_domain=system.cpu_clk_domain&#10;clusivity=mostly_incl&#10;data_latency=20&#10;default_p_state=UNDEFINED&#10;demand_mshr_reserve=1&#10;eventq_index=0&#10;is_read_only=false&#10;max_miss_count=0&#10;mshrs=20&#10;p_state_clk_gate_bins=20&#10;p_state_clk_gate_max=1000000000000&#10;p_state_clk_gate_min=1000&#10;power_model=Null&#10;prefetch_on_access=false&#10;prefetcher=Null&#10;response_latency=20&#10;sequential_access=false&#10;size=2097152&#10;system=system&#10;tag_latency=20&#10;tags=system.l2.tags&#10;tgts_per_mshr=12&#10;write_buffers=8&#10;writeback_clean=false">
<path fill="#bab6ae" stroke="#000000" d="M781,-24C781,-24 943,-24 943,-24 949,-24 955,-30 955,-36 955,-36 955,-103 955,-103 955,-109 949,-115 943,-115 943,-115 781,-115 781,-115 775,-115 769,-109 769,-103 769,-103 769,-36 769,-36 769,-30 775,-24 781,-24"/>
<text text-anchor="middle" x="862" y="-99.8" font-family="Arial" font-size="14.00" fill="#000000">l2 </text>
<text text-anchor="middle" x="862" y="-84.8" font-family="Arial" font-size="14.00" fill="#000000">: L2Cache</text>
</a>
</g>
</g>
<g id="clust12" class="cluster">
<title>cluster_system_mem_ctrls</title>
<g id="a_clust12"><a xlink:title="IDD0=0.055000&#10;IDD02=0.000000&#10;IDD2N=0.032000&#10;IDD2N2=0.000000&#10;IDD2P0=0.000000&#10;IDD2P02=0.000000&#10;IDD2P1=0.032000&#10;IDD2P12=0.000000&#10;IDD3N=0.038000&#10;IDD3N2=0.000000&#10;IDD3P0=0.000000&#10;IDD3P02=0.000000&#10;IDD3P1=0.038000&#10;IDD3P12=0.000000&#10;IDD4R=0.157000&#10;IDD4R2=0.000000&#10;IDD4W=0.125000&#10;IDD4W2=0.000000&#10;IDD5=0.235000&#10;IDD52=0.000000&#10;IDD6=0.020000&#10;IDD62=0.000000&#10;VDD=1.500000&#10;VDD2=0.000000&#10;activation_limit=4&#10;addr_mapping=RoRaBaCoCh&#10;bank_groups_per_rank=0&#10;banks_per_rank=8&#10;burst_length=8&#10;channels=1&#10;clk_domain=system.clk_domain&#10;conf_table_reported=true&#10;default_p_state=UNDEFINED&#10;device_bus_width=8&#10;device_rowbuffer_size=1024&#10;device_size=536870912&#10;devices_per_rank=8&#10;dll=true&#10;eventq_index=0&#10;in_addr_map=true&#10;kvm_map=true&#10;max_accesses_per_row=16&#10;mem_sched_policy=frfcfs&#10;min_writes_per_switch=16&#10;null=false&#10;p_state_clk_gate_bins=20&#10;p_state_clk_gate_max=1000000000000&#10;p_state_clk_gate_min=1000&#10;page_policy=open_adaptive&#10;power_model=Null&#10;range=0:536870911:6:19:0:0&#10;ranks_per_channel=2&#10;read_buffer_size=32&#10;static_backend_latency=10000&#10;static_frontend_latency=10000&#10;tBURST=5000&#10;tCCD_L=0&#10;tCK=1250&#10;tCL=13750&#10;tCS=2500&#10;tRAS=35000&#10;tRCD=13750&#10;tREFI=7800000&#10;tRFC=260000&#10;tRP=13750&#10;tRRD=6000&#10;tRRD_L=0&#10;tRTP=7500&#10;tRTW=2500&#10;tWR=15000&#10;tWTR=7500&#10;tXAW=30000&#10;tXP=6000&#10;tXPDLL=0&#10;tXS=270000&#10;tXSDLL=0&#10;write_buffer_size=64&#10;write_high_thresh_perc=85&#10;write_low_thresh_perc=50">
<path fill="#5e5958" stroke="#000000" d="M36,-417C36,-417 140,-417 140,-417 146,-417 152,-423 152,-429 152,-429 152,-496 152,-496 152,-502 146,-508 140,-508 140,-508 36,-508 36,-508 30,-508 24,-502 24,-496 24,-496 24,-429 24,-429 24,-423 30,-417 36,-417"/>
<text text-anchor="middle" x="88" y="-492.8" font-family="Arial" font-size="14.00" fill="#000000">mem_ctrls </text>
<text text-anchor="middle" x="88" y="-477.8" font-family="Arial" font-size="14.00" fill="#000000">: DDR3_1600_8x8</text>
</a>
</g>
</g>
<g id="clust15" class="cluster">
<title>cluster_system_cpu</title>
<g id="a_clust15"><a xlink:title="branchPred=Null&#10;checker=Null&#10;clk_domain=system.cpu_clk_domain&#10;cpu_id=0&#10;default_p_state=UNDEFINED&#10;do_checkpoint_insts=true&#10;do_quiesce=true&#10;do_statistics_insts=true&#10;dtb=system.cpu.dtb&#10;eventq_index=0&#10;fastmem=false&#10;function_trace=false&#10;function_trace_start=0&#10;interrupts=system.cpu.interrupts&#10;isa=system.cpu.isa&#10;itb=system.cpu.itb&#10;max_insts_all_threads=0&#10;max_insts_any_thread=0&#10;max_loads_all_threads=0&#10;max_loads_any_thread=0&#10;numThreads=1&#10;p_state_clk_gate_bins=20&#10;p_state_clk_gate_max=1000000000000&#10;p_state_clk_gate_min=1000&#10;power_model=Null&#10;profile=0&#10;progress_interval=0&#10;simpoint_start_insts=&#10;simulate_data_stalls=false&#10;simulate_inst_stalls=false&#10;socket_id=0&#10;switched_out=false&#10;syscallRetryLatency=10000&#10;system=system&#10;tracer=system.cpu.tracer&#10;wait_for_remote_gdb=false&#10;width=1&#10;workload=system.cpu.workload">
<path fill="#bbc6d9" stroke="#000000" d="M172,-278C172,-278 976,-278 976,-278 982,-278 988,-284 988,-290 988,-290 988,-588 988,-588 988,-594 982,-600 976,-600 976,-600 172,-600 172,-600 166,-600 160,-594 160,-588 160,-588 160,-290 160,-290 160,-284 166,-278 172,-278"/>
<text text-anchor="middle" x="574" y="-584.8" font-family="Arial" font-size="14.00" fill="#000000">cpu </text>
<text text-anchor="middle" x="574" y="-569.8" font-family="Arial" font-size="14.00" fill="#000000">: AtomicSimpleCPU</text>
</a>
</g>
</g>
<g id="clust16" class="cluster">
<title>cluster_system_cpu_icache</title>
<g id="a_clust16"><a xlink:title="addr_ranges=0:18446744073709551615:0:0:0:0&#10;assoc=2&#10;clk_domain=system.cpu_clk_domain&#10;clusivity=mostly_incl&#10;data_latency=2&#10;default_p_state=UNDEFINED&#10;demand_mshr_reserve=1&#10;eventq_index=0&#10;is_read_only=true&#10;max_miss_count=0&#10;mshrs=4&#10;p_state_clk_gate_bins=20&#10;p_state_clk_gate_max=1000000000000&#10;p_state_clk_gate_min=1000&#10;power_model=Null&#10;prefetch_on_access=false&#10;prefetcher=Null&#10;response_latency=2&#10;sequential_access=false&#10;size=32768&#10;system=system&#10;tag_latency=2&#10;tags=system.cpu.icache.tags&#10;tgts_per_mshr=20&#10;write_buffers=8&#10;writeback_clean=true">
<path fill="#bab6ae" stroke="#000000" d="M376,-286C376,-286 538,-286 538,-286 544,-286 550,-292 550,-298 550,-298 550,-365 550,-365 550,-371 544,-377 538,-377 538,-377 376,-377 376,-377 370,-377 364,-371 364,-365 364,-365 364,-298 364,-298 364,-292 370,-286 376,-286"/>
<text text-anchor="middle" x="457" y="-361.8" font-family="Arial" font-size="14.00" fill="#000000">icache </text>
<text text-anchor="middle" x="457" y="-346.8" font-family="Arial" font-size="14.00" fill="#000000">: L1_ICache</text>
</a>
</g>
</g>
<g id="clust19" class="cluster">
<title>cluster_system_cpu_dtb</title>
<g id="a_clust19"><a xlink:title="eventq_index=0&#10;size=64&#10;walker=system.cpu.dtb.walker">
<path fill="#bab6ae" stroke="#000000" d="M824,-409C824,-409 968,-409 968,-409 974,-409 980,-415 980,-421 980,-421 980,-542 980,-542 980,-548 974,-554 968,-554 968,-554 824,-554 824,-554 818,-554 812,-548 812,-542 812,-542 812,-421 812,-421 812,-415 818,-409 824,-409"/>
<text text-anchor="middle" x="896" y="-538.8" font-family="Arial" font-size="14.00" fill="#000000">dtb </text>
<text text-anchor="middle" x="896" y="-523.8" font-family="Arial" font-size="14.00" fill="#000000">: X86TLB</text>
</a>
</g>
</g>
<g id="clust20" class="cluster">
<title>cluster_system_cpu_dtb_walker</title>
<g id="a_clust20"><a xlink:title="clk_domain=system.cpu_clk_domain&#10;default_p_state=UNDEFINED&#10;eventq_index=0&#10;num_squash_per_cycle=4&#10;p_state_clk_gate_bins=20&#10;p_state_clk_gate_max=1000000000000&#10;p_state_clk_gate_min=1000&#10;power_model=Null&#10;system=system">
<path fill="#9f9c95" stroke="#000000" d="M832,-417C832,-417 960,-417 960,-417 966,-417 972,-423 972,-429 972,-429 972,-496 972,-496 972,-502 966,-508 960,-508 960,-508 832,-508 832,-508 826,-508 820,-502 820,-496 820,-496 820,-429 820,-429 820,-423 826,-417 832,-417"/>
<text text-anchor="middle" x="896" y="-492.8" font-family="Arial" font-size="14.00" fill="#000000">walker </text>
<text text-anchor="middle" x="896" y="-477.8" font-family="Arial" font-size="14.00" fill="#000000">: X86PagetableWalker</text>
</a>
</g>
</g>
<g id="clust21" class="cluster">
<title>cluster_system_cpu_interrupts</title>
<g id="a_clust21"><a xlink:title="clk_domain=system.cpu.apic_clk_domain&#10;default_p_state=UNDEFINED&#10;eventq_index=0&#10;int_latency=1000&#10;p_state_clk_gate_bins=20&#10;p_state_clk_gate_max=1000000000000&#10;p_state_clk_gate_min=1000&#10;pio_addr=2305843009213693952&#10;pio_latency=100000&#10;power_model=Null&#10;system=system">
<path fill="#c7a793" stroke="#000000" d="M560,-417C560,-417 792,-417 792,-417 798,-417 804,-423 804,-429 804,-429 804,-496 804,-496 804,-502 798,-508 792,-508 792,-508 560,-508 560,-508 554,-508 548,-502 548,-496 548,-496 548,-429 548,-429 548,-423 554,-417 560,-417"/>
<text text-anchor="middle" x="676" y="-492.8" font-family="Arial" font-size="14.00" fill="#000000">interrupts </text>
<text text-anchor="middle" x="676" y="-477.8" font-family="Arial" font-size="14.00" fill="#000000">: X86LocalApic</text>
</a>
</g>
</g>
<g id="clust22" class="cluster">
<title>cluster_system_cpu_itb_walker_cache</title>
<g id="a_clust22"><a xlink:title="addr_ranges=0:18446744073709551615:0:0:0:0&#10;assoc=2&#10;clk_domain=system.cpu_clk_domain&#10;clusivity=mostly_incl&#10;data_latency=2&#10;default_p_state=UNDEFINED&#10;demand_mshr_reserve=1&#10;eventq_index=0&#10;is_read_only=false&#10;max_miss_count=0&#10;mshrs=10&#10;p_state_clk_gate_bins=20&#10;p_state_clk_gate_max=1000000000000&#10;p_state_clk_gate_min=1000&#10;power_model=Null&#10;prefetch_on_access=false&#10;prefetcher=Null&#10;response_latency=2&#10;sequential_access=false&#10;size=1024&#10;system=system&#10;tag_latency=2&#10;tags=system.cpu.itb_walker_cache.tags&#10;tgts_per_mshr=12&#10;write_buffers=8&#10;writeback_clean=false">
<path fill="#bab6ae" stroke="#000000" d="M570,-286C570,-286 732,-286 732,-286 738,-286 744,-292 744,-298 744,-298 744,-365 744,-365 744,-371 738,-377 732,-377 732,-377 570,-377 570,-377 564,-377 558,-371 558,-365 558,-365 558,-298 558,-298 558,-292 564,-286 570,-286"/>
<text text-anchor="middle" x="651" y="-361.8" font-family="Arial" font-size="14.00" fill="#000000">itb_walker_cache </text>
<text text-anchor="middle" x="651" y="-346.8" font-family="Arial" font-size="14.00" fill="#000000">: PageTableWalkerCache</text>
</a>
</g>
</g>
<g id="clust24" class="cluster">
<title>cluster_system_cpu_itb</title>
<g id="a_clust24"><a xlink:title="eventq_index=0&#10;size=64&#10;walker=system.cpu.itb.walker">
<path fill="#bab6ae" stroke="#000000" d="M384,-409C384,-409 528,-409 528,-409 534,-409 540,-415 540,-421 540,-421 540,-542 540,-542 540,-548 534,-554 528,-554 528,-554 384,-554 384,-554 378,-554 372,-548 372,-542 372,-542 372,-421 372,-421 372,-415 378,-409 384,-409"/>
<text text-anchor="middle" x="456" y="-538.8" font-family="Arial" font-size="14.00" fill="#000000">itb </text>
<text text-anchor="middle" x="456" y="-523.8" font-family="Arial" font-size="14.00" fill="#000000">: X86TLB</text>
</a>
</g>
</g>
<g id="clust25" class="cluster">
<title>cluster_system_cpu_itb_walker</title>
<g id="a_clust25"><a xlink:title="clk_domain=system.cpu_clk_domain&#10;default_p_state=UNDEFINED&#10;eventq_index=0&#10;num_squash_per_cycle=4&#10;p_state_clk_gate_bins=20&#10;p_state_clk_gate_max=1000000000000&#10;p_state_clk_gate_min=1000&#10;power_model=Null&#10;system=system">
<path fill="#9f9c95" stroke="#000000" d="M392,-417C392,-417 520,-417 520,-417 526,-417 532,-423 532,-429 532,-429 532,-496 532,-496 532,-502 526,-508 520,-508 520,-508 392,-508 392,-508 386,-508 380,-502 380,-496 380,-496 380,-429 380,-429 380,-423 386,-417 392,-417"/>
<text text-anchor="middle" x="456" y="-492.8" font-family="Arial" font-size="14.00" fill="#000000">walker </text>
<text text-anchor="middle" x="456" y="-477.8" font-family="Arial" font-size="14.00" fill="#000000">: X86PagetableWalker</text>
</a>
</g>
</g>
<g id="clust26" class="cluster">
<title>cluster_system_cpu_dtb_walker_cache</title>
<g id="a_clust26"><a xlink:title="addr_ranges=0:18446744073709551615:0:0:0:0&#10;assoc=2&#10;clk_domain=system.cpu_clk_domain&#10;clusivity=mostly_incl&#10;data_latency=2&#10;default_p_state=UNDEFINED&#10;demand_mshr_reserve=1&#10;eventq_index=0&#10;is_read_only=false&#10;max_miss_count=0&#10;mshrs=10&#10;p_state_clk_gate_bins=20&#10;p_state_clk_gate_max=1000000000000&#10;p_state_clk_gate_min=1000&#10;power_model=Null&#10;prefetch_on_access=false&#10;prefetcher=Null&#10;response_latency=2&#10;sequential_access=false&#10;size=1024&#10;system=system&#10;tag_latency=2&#10;tags=system.cpu.dtb_walker_cache.tags&#10;tgts_per_mshr=12&#10;write_buffers=8&#10;writeback_clean=false">
<path fill="#bab6ae" stroke="#000000" d="M785,-286C785,-286 947,-286 947,-286 953,-286 959,-292 959,-298 959,-298 959,-365 959,-365 959,-371 953,-377 947,-377 947,-377 785,-377 785,-377 779,-377 773,-371 773,-365 773,-365 773,-298 773,-298 773,-292 779,-286 785,-286"/>
<text text-anchor="middle" x="866" y="-361.8" font-family="Arial" font-size="14.00" fill="#000000">dtb_walker_cache </text>
<text text-anchor="middle" x="866" y="-346.8" font-family="Arial" font-size="14.00" fill="#000000">: PageTableWalkerCache</text>
</a>
</g>
</g>
<g id="clust29" class="cluster">
<title>cluster_system_cpu_dcache</title>
<g id="a_clust29"><a xlink:title="addr_ranges=0:18446744073709551615:0:0:0:0&#10;assoc=2&#10;clk_domain=system.cpu_clk_domain&#10;clusivity=mostly_incl&#10;data_latency=2&#10;default_p_state=UNDEFINED&#10;demand_mshr_reserve=1&#10;eventq_index=0&#10;is_read_only=false&#10;max_miss_count=0&#10;mshrs=4&#10;p_state_clk_gate_bins=20&#10;p_state_clk_gate_max=1000000000000&#10;p_state_clk_gate_min=1000&#10;power_model=Null&#10;prefetch_on_access=false&#10;prefetcher=Null&#10;response_latency=2&#10;sequential_access=false&#10;size=65536&#10;system=system&#10;tag_latency=2&#10;tags=system.cpu.dcache.tags&#10;tgts_per_mshr=20&#10;write_buffers=8&#10;writeback_clean=false">
<path fill="#bab6ae" stroke="#000000" d="M182,-286C182,-286 344,-286 344,-286 350,-286 356,-292 356,-298 356,-298 356,-365 356,-365 356,-371 350,-377 344,-377 344,-377 182,-377 182,-377 176,-377 170,-371 170,-365 170,-365 170,-298 170,-298 170,-292 176,-286 182,-286"/>
<text text-anchor="middle" x="263" y="-361.8" font-family="Arial" font-size="14.00" fill="#000000">dcache </text>
<text text-anchor="middle" x="263" y="-346.8" font-family="Arial" font-size="14.00" fill="#000000">: L1_DCache</text>
</a>
</g>
</g>
<!-- system_system_port -->
<g id="node1" class="node">
<title>system_system_port</title>
<path fill="#b6b8bc" stroke="#000000" d="M704.5,-747.5C704.5,-747.5 771.5,-747.5 771.5,-747.5 777.5,-747.5 783.5,-753.5 783.5,-759.5 783.5,-759.5 783.5,-771.5 783.5,-771.5 783.5,-777.5 777.5,-783.5 771.5,-783.5 771.5,-783.5 704.5,-783.5 704.5,-783.5 698.5,-783.5 692.5,-777.5 692.5,-771.5 692.5,-771.5 692.5,-759.5 692.5,-759.5 692.5,-753.5 698.5,-747.5 704.5,-747.5"/>
<text text-anchor="middle" x="738" y="-761.8" font-family="Arial" font-size="14.00" fill="#000000">system_port</text>
</g>
<!-- system_membus_slave -->
<g id="node3" class="node">
<title>system_membus_slave</title>
<path fill="#586070" stroke="#000000" d="M723,-616.5C723,-616.5 753,-616.5 753,-616.5 759,-616.5 765,-622.5 765,-628.5 765,-628.5 765,-640.5 765,-640.5 765,-646.5 759,-652.5 753,-652.5 753,-652.5 723,-652.5 723,-652.5 717,-652.5 711,-646.5 711,-640.5 711,-640.5 711,-628.5 711,-628.5 711,-622.5 717,-616.5 723,-616.5"/>
<text text-anchor="middle" x="738" y="-630.8" font-family="Arial" font-size="14.00" fill="#000000">slave</text>
</g>
<!-- system_system_port&#45;&gt;system_membus_slave -->
<g id="edge1" class="edge">
<title>system_system_port&#45;&gt;system_membus_slave</title>
<path fill="none" stroke="#000000" d="M738,-747.285C738,-725.3856 738,-688.3861 738,-662.7663"/>
<polygon fill="#000000" stroke="#000000" points="741.5001,-662.5603 738,-652.5603 734.5001,-662.5603 741.5001,-662.5603"/>
</g>
<!-- system_membus_master -->
<g id="node2" class="node">
<title>system_membus_master</title>
<path fill="#586070" stroke="#000000" d="M645.5,-616.5C645.5,-616.5 680.5,-616.5 680.5,-616.5 686.5,-616.5 692.5,-622.5 692.5,-628.5 692.5,-628.5 692.5,-640.5 692.5,-640.5 692.5,-646.5 686.5,-652.5 680.5,-652.5 680.5,-652.5 645.5,-652.5 645.5,-652.5 639.5,-652.5 633.5,-646.5 633.5,-640.5 633.5,-640.5 633.5,-628.5 633.5,-628.5 633.5,-622.5 639.5,-616.5 645.5,-616.5"/>
<text text-anchor="middle" x="663" y="-630.8" font-family="Arial" font-size="14.00" fill="#000000">master</text>
</g>
<!-- system_mem_ctrls_port -->
<g id="node8" class="node">
<title>system_mem_ctrls_port</title>
<path fill="#4b4746" stroke="#000000" d="M102,-425.5C102,-425.5 132,-425.5 132,-425.5 138,-425.5 144,-431.5 144,-437.5 144,-437.5 144,-449.5 144,-449.5 144,-455.5 138,-461.5 132,-461.5 132,-461.5 102,-461.5 102,-461.5 96,-461.5 90,-455.5 90,-449.5 90,-449.5 90,-437.5 90,-437.5 90,-431.5 96,-425.5 102,-425.5"/>
<text text-anchor="middle" x="117" y="-439.8" font-family="Arial" font-size="14.00" fill="#000000">port</text>
</g>
<!-- system_membus_master&#45;&gt;system_mem_ctrls_port -->
<g id="edge4" class="edge">
<title>system_membus_master&#45;&gt;system_mem_ctrls_port</title>
<path fill="none" stroke="#000000" d="M633.2957,-633.4388C527.5016,-629.5359 174.3878,-615.4018 156,-600 118.7467,-568.7963 114.0794,-507.9767 114.9375,-472.0357"/>
<polygon fill="#000000" stroke="#000000" points="118.4467,-471.8732 115.3512,-461.7407 111.4524,-471.5921 118.4467,-471.8732"/>
</g>
<!-- system_cpu_interrupts_int_slave -->
<g id="node14" class="node">
<title>system_cpu_interrupts_int_slave</title>
<path fill="#9f8575" stroke="#000000" d="M640,-425.5C640,-425.5 686,-425.5 686,-425.5 692,-425.5 698,-431.5 698,-437.5 698,-437.5 698,-449.5 698,-449.5 698,-455.5 692,-461.5 686,-461.5 686,-461.5 640,-461.5 640,-461.5 634,-461.5 628,-455.5 628,-449.5 628,-449.5 628,-437.5 628,-437.5 628,-431.5 634,-425.5 640,-425.5"/>
<text text-anchor="middle" x="663" y="-439.8" font-family="Arial" font-size="14.00" fill="#000000">int_slave</text>
</g>
<!-- system_membus_master&#45;&gt;system_cpu_interrupts_int_slave -->
<g id="edge3" class="edge">
<title>system_membus_master&#45;&gt;system_cpu_interrupts_int_slave</title>
<path fill="none" stroke="#000000" d="M663,-616.1861C663,-582.7443 663,-511.586 663,-471.8441"/>
<polygon fill="#000000" stroke="#000000" points="666.5001,-471.7584 663,-461.7584 659.5001,-471.7585 666.5001,-471.7584"/>
</g>
<!-- system_cpu_interrupts_pio -->
<g id="node16" class="node">
<title>system_cpu_interrupts_pio</title>
<path fill="#9f8575" stroke="#000000" d="M568,-425.5C568,-425.5 598,-425.5 598,-425.5 604,-425.5 610,-431.5 610,-437.5 610,-437.5 610,-449.5 610,-449.5 610,-455.5 604,-461.5 598,-461.5 598,-461.5 568,-461.5 568,-461.5 562,-461.5 556,-455.5 556,-449.5 556,-449.5 556,-437.5 556,-437.5 556,-431.5 562,-425.5 568,-425.5"/>
<text text-anchor="middle" x="583" y="-439.8" font-family="Arial" font-size="14.00" fill="#000000">pio</text>
</g>
<!-- system_membus_master&#45;&gt;system_cpu_interrupts_pio -->
<g id="edge2" class="edge">
<title>system_membus_master&#45;&gt;system_cpu_interrupts_pio</title>
<path fill="none" stroke="#000000" d="M633.7446,-616.1752C628.1534,-611.5038 622.8519,-606.0632 619,-600 593.8829,-560.4636 586.2282,-505.4159 583.9334,-472.245"/>
<polygon fill="#000000" stroke="#000000" points="587.4066,-471.673 583.3432,-461.8884 580.4179,-472.0714 587.4066,-471.673"/>
</g>
<!-- system_tol2bus_master -->
<g id="node4" class="node">
<title>system_tol2bus_master</title>
<path fill="#586070" stroke="#000000" d="M753.5,-163.5C753.5,-163.5 788.5,-163.5 788.5,-163.5 794.5,-163.5 800.5,-169.5 800.5,-175.5 800.5,-175.5 800.5,-187.5 800.5,-187.5 800.5,-193.5 794.5,-199.5 788.5,-199.5 788.5,-199.5 753.5,-199.5 753.5,-199.5 747.5,-199.5 741.5,-193.5 741.5,-187.5 741.5,-187.5 741.5,-175.5 741.5,-175.5 741.5,-169.5 747.5,-163.5 753.5,-163.5"/>
<text text-anchor="middle" x="771" y="-177.8" font-family="Arial" font-size="14.00" fill="#000000">master</text>
</g>
<!-- system_l2_cpu_side -->
<g id="node7" class="node">
<title>system_l2_cpu_side</title>
<path fill="#94918b" stroke="#000000" d="M789.5,-32.5C789.5,-32.5 836.5,-32.5 836.5,-32.5 842.5,-32.5 848.5,-38.5 848.5,-44.5 848.5,-44.5 848.5,-56.5 848.5,-56.5 848.5,-62.5 842.5,-68.5 836.5,-68.5 836.5,-68.5 789.5,-68.5 789.5,-68.5 783.5,-68.5 777.5,-62.5 777.5,-56.5 777.5,-56.5 777.5,-44.5 777.5,-44.5 777.5,-38.5 783.5,-32.5 789.5,-32.5"/>
<text text-anchor="middle" x="813" y="-46.8" font-family="Arial" font-size="14.00" fill="#000000">cpu_side</text>
</g>
<!-- system_tol2bus_master&#45;&gt;system_l2_cpu_side -->
<g id="edge5" class="edge">
<title>system_tol2bus_master&#45;&gt;system_l2_cpu_side</title>
<path fill="none" stroke="#000000" d="M776.8399,-163.285C783.8925,-141.2878 795.8296,-104.0554 804.0473,-78.4238"/>
<polygon fill="#000000" stroke="#000000" points="807.4895,-79.1514 807.2097,-68.5603 800.8237,-77.0143 807.4895,-79.1514"/>
</g>
<!-- system_tol2bus_slave -->
<g id="node5" class="node">
<title>system_tol2bus_slave</title>
<path fill="#586070" stroke="#000000" d="M681,-163.5C681,-163.5 711,-163.5 711,-163.5 717,-163.5 723,-169.5 723,-175.5 723,-175.5 723,-187.5 723,-187.5 723,-193.5 717,-199.5 711,-199.5 711,-199.5 681,-199.5 681,-199.5 675,-199.5 669,-193.5 669,-187.5 669,-187.5 669,-175.5 669,-175.5 669,-169.5 675,-163.5 681,-163.5"/>
<text text-anchor="middle" x="696" y="-177.8" font-family="Arial" font-size="14.00" fill="#000000">slave</text>
</g>
<!-- system_l2_mem_side -->
<g id="node6" class="node">
<title>system_l2_mem_side</title>
<path fill="#94918b" stroke="#000000" d="M879,-32.5C879,-32.5 935,-32.5 935,-32.5 941,-32.5 947,-38.5 947,-44.5 947,-44.5 947,-56.5 947,-56.5 947,-62.5 941,-68.5 935,-68.5 935,-68.5 879,-68.5 879,-68.5 873,-68.5 867,-62.5 867,-56.5 867,-56.5 867,-44.5 867,-44.5 867,-38.5 873,-32.5 879,-32.5"/>
<text text-anchor="middle" x="907" y="-46.8" font-family="Arial" font-size="14.00" fill="#000000">mem_side</text>
</g>
<!-- system_l2_mem_side&#45;&gt;system_membus_slave -->
<g id="edge6" class="edge">
<title>system_l2_mem_side&#45;&gt;system_membus_slave</title>
<path fill="none" stroke="#000000" d="M917.8672,-68.7186C961.5628,-144.5612 1115.5292,-438.7866 976,-600 963.0589,-614.9523 838.9251,-626.6685 775.2627,-631.7493"/>
<polygon fill="#000000" stroke="#000000" points="774.9185,-628.2655 765.2223,-632.5356 775.4651,-635.2441 774.9185,-628.2655"/>
</g>
<!-- system_cpu_icache_port -->
<g id="node9" class="node">
<title>system_cpu_icache_port</title>
<path fill="#959ead" stroke="#000000" d="M290,-425.5C290,-425.5 352,-425.5 352,-425.5 358,-425.5 364,-431.5 364,-437.5 364,-437.5 364,-449.5 364,-449.5 364,-455.5 358,-461.5 352,-461.5 352,-461.5 290,-461.5 290,-461.5 284,-461.5 278,-455.5 278,-449.5 278,-449.5 278,-437.5 278,-437.5 278,-431.5 284,-425.5 290,-425.5"/>
<text text-anchor="middle" x="321" y="-439.8" font-family="Arial" font-size="14.00" fill="#000000">icache_port</text>
</g>
<!-- system_cpu_icache_cpu_side -->
<g id="node12" class="node">
<title>system_cpu_icache_cpu_side</title>
<path fill="#94918b" stroke="#000000" d="M384.5,-294.5C384.5,-294.5 431.5,-294.5 431.5,-294.5 437.5,-294.5 443.5,-300.5 443.5,-306.5 443.5,-306.5 443.5,-318.5 443.5,-318.5 443.5,-324.5 437.5,-330.5 431.5,-330.5 431.5,-330.5 384.5,-330.5 384.5,-330.5 378.5,-330.5 372.5,-324.5 372.5,-318.5 372.5,-318.5 372.5,-306.5 372.5,-306.5 372.5,-300.5 378.5,-294.5 384.5,-294.5"/>
<text text-anchor="middle" x="408" y="-308.8" font-family="Arial" font-size="14.00" fill="#000000">cpu_side</text>
</g>
<!-- system_cpu_icache_port&#45;&gt;system_cpu_icache_cpu_side -->
<g id="edge7" class="edge">
<title>system_cpu_icache_port&#45;&gt;system_cpu_icache_cpu_side</title>
<path fill="none" stroke="#000000" d="M333.097,-425.285C347.9655,-402.8968 373.315,-364.7268 390.3556,-339.068"/>
<polygon fill="#000000" stroke="#000000" points="393.389,-340.8269 396.0058,-330.5603 387.5578,-336.9542 393.389,-340.8269"/>
</g>
<!-- system_cpu_dcache_port -->
<g id="node10" class="node">
<title>system_cpu_dcache_port</title>
<path fill="#959ead" stroke="#000000" d="M180.5,-425.5C180.5,-425.5 247.5,-425.5 247.5,-425.5 253.5,-425.5 259.5,-431.5 259.5,-437.5 259.5,-437.5 259.5,-449.5 259.5,-449.5 259.5,-455.5 253.5,-461.5 247.5,-461.5 247.5,-461.5 180.5,-461.5 180.5,-461.5 174.5,-461.5 168.5,-455.5 168.5,-449.5 168.5,-449.5 168.5,-437.5 168.5,-437.5 168.5,-431.5 174.5,-425.5 180.5,-425.5"/>
<text text-anchor="middle" x="214" y="-439.8" font-family="Arial" font-size="14.00" fill="#000000">dcache_port</text>
</g>
<!-- system_cpu_dcache_cpu_side -->
<g id="node23" class="node">
<title>system_cpu_dcache_cpu_side</title>
<path fill="#94918b" stroke="#000000" d="M190.5,-294.5C190.5,-294.5 237.5,-294.5 237.5,-294.5 243.5,-294.5 249.5,-300.5 249.5,-306.5 249.5,-306.5 249.5,-318.5 249.5,-318.5 249.5,-324.5 243.5,-330.5 237.5,-330.5 237.5,-330.5 190.5,-330.5 190.5,-330.5 184.5,-330.5 178.5,-324.5 178.5,-318.5 178.5,-318.5 178.5,-306.5 178.5,-306.5 178.5,-300.5 184.5,-294.5 190.5,-294.5"/>
<text text-anchor="middle" x="214" y="-308.8" font-family="Arial" font-size="14.00" fill="#000000">cpu_side</text>
</g>
<!-- system_cpu_dcache_port&#45;&gt;system_cpu_dcache_cpu_side -->
<g id="edge8" class="edge">
<title>system_cpu_dcache_port&#45;&gt;system_cpu_dcache_cpu_side</title>
<path fill="none" stroke="#000000" d="M214,-425.285C214,-403.3856 214,-366.3861 214,-340.7663"/>
<polygon fill="#000000" stroke="#000000" points="217.5001,-340.5603 214,-330.5603 210.5001,-340.5603 217.5001,-340.5603"/>
</g>
<!-- system_cpu_icache_mem_side -->
<g id="node11" class="node">
<title>system_cpu_icache_mem_side</title>
<path fill="#94918b" stroke="#000000" d="M474,-294.5C474,-294.5 530,-294.5 530,-294.5 536,-294.5 542,-300.5 542,-306.5 542,-306.5 542,-318.5 542,-318.5 542,-324.5 536,-330.5 530,-330.5 530,-330.5 474,-330.5 474,-330.5 468,-330.5 462,-324.5 462,-318.5 462,-318.5 462,-306.5 462,-306.5 462,-300.5 468,-294.5 474,-294.5"/>
<text text-anchor="middle" x="502" y="-308.8" font-family="Arial" font-size="14.00" fill="#000000">mem_side</text>
</g>
<!-- system_cpu_icache_mem_side&#45;&gt;system_tol2bus_slave -->
<g id="edge9" class="edge">
<title>system_cpu_icache_mem_side&#45;&gt;system_tol2bus_slave</title>
<path fill="none" stroke="#000000" d="M528.9749,-294.285C563.2883,-271.1146 622.6345,-231.0406 660.5678,-205.4259"/>
<polygon fill="#000000" stroke="#000000" points="662.9254,-208.0572 669.2542,-199.5603 659.008,-202.2559 662.9254,-208.0572"/>
</g>
<!-- system_cpu_dtb_walker_port -->
<g id="node13" class="node">
<title>system_cpu_dtb_walker_port</title>
<path fill="#7f7c77" stroke="#000000" d="M840,-425.5C840,-425.5 870,-425.5 870,-425.5 876,-425.5 882,-431.5 882,-437.5 882,-437.5 882,-449.5 882,-449.5 882,-455.5 876,-461.5 870,-461.5 870,-461.5 840,-461.5 840,-461.5 834,-461.5 828,-455.5 828,-449.5 828,-449.5 828,-437.5 828,-437.5 828,-431.5 834,-425.5 840,-425.5"/>
<text text-anchor="middle" x="855" y="-439.8" font-family="Arial" font-size="14.00" fill="#000000">port</text>
</g>
<!-- system_cpu_dtb_walker_cache_cpu_side -->
<g id="node21" class="node">
<title>system_cpu_dtb_walker_cache_cpu_side</title>
<path fill="#94918b" stroke="#000000" d="M793.5,-294.5C793.5,-294.5 840.5,-294.5 840.5,-294.5 846.5,-294.5 852.5,-300.5 852.5,-306.5 852.5,-306.5 852.5,-318.5 852.5,-318.5 852.5,-324.5 846.5,-330.5 840.5,-330.5 840.5,-330.5 793.5,-330.5 793.5,-330.5 787.5,-330.5 781.5,-324.5 781.5,-318.5 781.5,-318.5 781.5,-306.5 781.5,-306.5 781.5,-300.5 787.5,-294.5 793.5,-294.5"/>
<text text-anchor="middle" x="817" y="-308.8" font-family="Arial" font-size="14.00" fill="#000000">cpu_side</text>
</g>
<!-- system_cpu_dtb_walker_port&#45;&gt;system_cpu_dtb_walker_cache_cpu_side -->
<g id="edge10" class="edge">
<title>system_cpu_dtb_walker_port&#45;&gt;system_cpu_dtb_walker_cache_cpu_side</title>
<path fill="none" stroke="#000000" d="M849.7163,-425.285C843.3354,-403.2878 832.5352,-366.0554 825.1,-340.4238"/>
<polygon fill="#000000" stroke="#000000" points="828.3863,-339.1893 822.2389,-330.5603 821.6634,-341.1395 828.3863,-339.1893"/>
</g>
<!-- system_cpu_interrupts_int_master -->
<g id="node15" class="node">
<title>system_cpu_interrupts_int_master</title>
<path fill="#9f8575" stroke="#000000" d="M728,-425.5C728,-425.5 784,-425.5 784,-425.5 790,-425.5 796,-431.5 796,-437.5 796,-437.5 796,-449.5 796,-449.5 796,-455.5 790,-461.5 784,-461.5 784,-461.5 728,-461.5 728,-461.5 722,-461.5 716,-455.5 716,-449.5 716,-449.5 716,-437.5 716,-437.5 716,-431.5 722,-425.5 728,-425.5"/>
<text text-anchor="middle" x="756" y="-439.8" font-family="Arial" font-size="14.00" fill="#000000">int_master</text>
</g>
<!-- system_cpu_interrupts_int_master&#45;&gt;system_membus_slave -->
<g id="edge11" class="edge">
<title>system_cpu_interrupts_int_master&#45;&gt;system_membus_slave</title>
<path fill="none" stroke="#000000" d="M754.2793,-461.7584C751.1317,-495.1585 744.426,-566.3133 740.6774,-606.09"/>
<polygon fill="#000000" stroke="#000000" points="737.1797,-605.9018 739.7259,-616.1861 744.1488,-606.5586 737.1797,-605.9018"/>
</g>
<!-- system_cpu_itb_walker_cache_mem_side -->
<g id="node17" class="node">
<title>system_cpu_itb_walker_cache_mem_side</title>
<path fill="#94918b" stroke="#000000" d="M668,-294.5C668,-294.5 724,-294.5 724,-294.5 730,-294.5 736,-300.5 736,-306.5 736,-306.5 736,-318.5 736,-318.5 736,-324.5 730,-330.5 724,-330.5 724,-330.5 668,-330.5 668,-330.5 662,-330.5 656,-324.5 656,-318.5 656,-318.5 656,-306.5 656,-306.5 656,-300.5 662,-294.5 668,-294.5"/>
<text text-anchor="middle" x="696" y="-308.8" font-family="Arial" font-size="14.00" fill="#000000">mem_side</text>
</g>
<!-- system_cpu_itb_walker_cache_mem_side&#45;&gt;system_tol2bus_slave -->
<g id="edge12" class="edge">
<title>system_cpu_itb_walker_cache_mem_side&#45;&gt;system_tol2bus_slave</title>
<path fill="none" stroke="#000000" d="M696,-294.285C696,-272.3856 696,-235.3861 696,-209.7663"/>
<polygon fill="#000000" stroke="#000000" points="699.5001,-209.5603 696,-199.5603 692.5001,-209.5603 699.5001,-209.5603"/>
</g>
<!-- system_cpu_itb_walker_cache_cpu_side -->
<g id="node18" class="node">
<title>system_cpu_itb_walker_cache_cpu_side</title>
<path fill="#94918b" stroke="#000000" d="M578.5,-294.5C578.5,-294.5 625.5,-294.5 625.5,-294.5 631.5,-294.5 637.5,-300.5 637.5,-306.5 637.5,-306.5 637.5,-318.5 637.5,-318.5 637.5,-324.5 631.5,-330.5 625.5,-330.5 625.5,-330.5 578.5,-330.5 578.5,-330.5 572.5,-330.5 566.5,-324.5 566.5,-318.5 566.5,-318.5 566.5,-306.5 566.5,-306.5 566.5,-300.5 572.5,-294.5 578.5,-294.5"/>
<text text-anchor="middle" x="602" y="-308.8" font-family="Arial" font-size="14.00" fill="#000000">cpu_side</text>
</g>
<!-- system_cpu_itb_walker_port -->
<g id="node19" class="node">
<title>system_cpu_itb_walker_port</title>
<path fill="#7f7c77" stroke="#000000" d="M482,-425.5C482,-425.5 512,-425.5 512,-425.5 518,-425.5 524,-431.5 524,-437.5 524,-437.5 524,-449.5 524,-449.5 524,-455.5 518,-461.5 512,-461.5 512,-461.5 482,-461.5 482,-461.5 476,-461.5 470,-455.5 470,-449.5 470,-449.5 470,-437.5 470,-437.5 470,-431.5 476,-425.5 482,-425.5"/>
<text text-anchor="middle" x="497" y="-439.8" font-family="Arial" font-size="14.00" fill="#000000">port</text>
</g>
<!-- system_cpu_itb_walker_port&#45;&gt;system_cpu_itb_walker_cache_cpu_side -->
<g id="edge13" class="edge">
<title>system_cpu_itb_walker_port&#45;&gt;system_cpu_itb_walker_cache_cpu_side</title>
<path fill="none" stroke="#000000" d="M513.0702,-425.4379C524.6833,-412.2216 540.6155,-393.7493 554,-377 563.8868,-364.6277 574.4386,-350.5525 583.1238,-338.7142"/>
<polygon fill="#000000" stroke="#000000" points="586.0166,-340.6875 589.0818,-330.5457 580.3611,-336.5624 586.0166,-340.6875"/>
</g>
<!-- system_cpu_dtb_walker_cache_mem_side -->
<g id="node20" class="node">
<title>system_cpu_dtb_walker_cache_mem_side</title>
<path fill="#94918b" stroke="#000000" d="M883,-294.5C883,-294.5 939,-294.5 939,-294.5 945,-294.5 951,-300.5 951,-306.5 951,-306.5 951,-318.5 951,-318.5 951,-324.5 945,-330.5 939,-330.5 939,-330.5 883,-330.5 883,-330.5 877,-330.5 871,-324.5 871,-318.5 871,-318.5 871,-306.5 871,-306.5 871,-300.5 877,-294.5 883,-294.5"/>
<text text-anchor="middle" x="911" y="-308.8" font-family="Arial" font-size="14.00" fill="#000000">mem_side</text>
</g>
<!-- system_cpu_dtb_walker_cache_mem_side&#45;&gt;system_tol2bus_slave -->
<g id="edge14" class="edge">
<title>system_cpu_dtb_walker_cache_mem_side&#45;&gt;system_tol2bus_slave</title>
<path fill="none" stroke="#000000" d="M889.1324,-294.4939C881.0113,-288.5306 871.4642,-282.3211 862,-278 808.2649,-253.466 780.1479,-281.5874 733,-246 720.6837,-236.7036 711.8023,-222.0267 705.8334,-209.0205"/>
<polygon fill="#000000" stroke="#000000" points="708.9371,-207.3727 701.8279,-199.5171 702.4866,-210.0914 708.9371,-207.3727"/>
</g>
<!-- system_cpu_dcache_mem_side -->
<g id="node22" class="node">
<title>system_cpu_dcache_mem_side</title>
<path fill="#94918b" stroke="#000000" d="M280,-294.5C280,-294.5 336,-294.5 336,-294.5 342,-294.5 348,-300.5 348,-306.5 348,-306.5 348,-318.5 348,-318.5 348,-324.5 342,-330.5 336,-330.5 336,-330.5 280,-330.5 280,-330.5 274,-330.5 268,-324.5 268,-318.5 268,-318.5 268,-306.5 268,-306.5 268,-300.5 274,-294.5 280,-294.5"/>
<text text-anchor="middle" x="308" y="-308.8" font-family="Arial" font-size="14.00" fill="#000000">mem_side</text>
</g>
<!-- system_cpu_dcache_mem_side&#45;&gt;system_tol2bus_slave -->
<g id="edge15" class="edge">
<title>system_cpu_dcache_mem_side&#45;&gt;system_tol2bus_slave</title>
<path fill="none" stroke="#000000" d="M331.9585,-294.3846C340.4819,-288.5517 350.3613,-282.4524 360,-278 463.3397,-230.2647 595.6127,-200.677 658.9526,-188.2684"/>
<polygon fill="#000000" stroke="#000000" points="659.7167,-191.6856 668.8732,-186.3556 658.3914,-184.8122 659.7167,-191.6856"/>
</g>
</g>
</svg>
