<?xml version="1.0" encoding="UTF-8" standalone="no"?>
<!DOCTYPE svg PUBLIC "-//W3C//DTD SVG 1.1//EN"
 "http://www.w3.org/Graphics/SVG/1.1/DTD/svg11.dtd">
<!-- Generated by graphviz version 2.40.1 (20161225.0304)
 -->
<!-- Title: G Pages: 1 -->
<svg width="1030pt" height="1154pt"
 viewBox="0.00 0.00 1030.00 1154.00" xmlns="http://www.w3.org/2000/svg" xmlns:xlink="http://www.w3.org/1999/xlink">
<g id="graph0" class="graph" transform="scale(1 1) rotate(0) translate(4 1150)">
<title>G</title>
<polygon fill="#ffffff" stroke="transparent" points="-4,4 -4,-1150 1026,-1150 1026,4 -4,4"/>
<g id="clust1" class="cluster">
<title>cluster_root</title>
<g id="a_clust1"><a xlink:title="eventq_index=0&#10;full_system=false&#10;sim_quantum=0&#10;time_sync_enable=false&#10;time_sync_period=100000000000&#10;time_sync_spin_threshold=100000000">
<path fill="#bab6ae" stroke="#000000" d="M20,-8C20,-8 1002,-8 1002,-8 1008,-8 1014,-14 1014,-20 1014,-20 1014,-1126 1014,-1126 1014,-1132 1008,-1138 1002,-1138 1002,-1138 20,-1138 20,-1138 14,-1138 8,-1132 8,-1126 8,-1126 8,-20 8,-20 8,-14 14,-8 20,-8"/>
<text text-anchor="middle" x="511" y="-1122.8" font-family="Arial" font-size="14.00" fill="#000000">root </text>
<text text-anchor="middle" x="511" y="-1107.8" font-family="Arial" font-size="14.00" fill="#000000">: Root</text>
</a>
</g>
</g>
<g id="clust2" class="cluster">
<title>cluster_system</title>
<g id="a_clust2"><a xlink:title="boot_osflags=a&#10;cache_line_size=64&#10;clk_domain=system.clk_domain&#10;default_p_state=UNDEFINED&#10;eventq_index=0&#10;exit_on_work_items=false&#10;init_param=0&#10;kernel=&#10;kernel_addr_check=true&#10;kvm_vm=Null&#10;load_addr_mask=1099511627775&#10;load_offset=0&#10;mem_mode=atomic&#10;mem_ranges=0:4294967295:0:0:0:0&#10;memories=system.mem_ctrls&#10;mmap_using_noreserve=false&#10;multi_thread=false&#10;num_work_ids=16&#10;p_state_clk_gate_bins=20&#10;p_state_clk_gate_max=1000000000000&#10;p_state_clk_gate_min=1000&#10;power_model=Null&#10;readfile=&#10;symbolfile=&#10;thermal_components=&#10;thermal_model=Null&#10;work_begin_ckpt_count=0&#10;work_begin_cpu_id_exit=&#45;1&#10;work_begin_exit_count=0&#10;work_cpus_ckpt_count=0&#10;work_end_ckpt_count=0&#10;work_end_exit_count=0&#10;work_item_id=&#45;1">
<path fill="#e4e7eb" stroke="#000000" d="M28,-16C28,-16 994,-16 994,-16 1000,-16 1006,-22 1006,-28 1006,-28 1006,-1080 1006,-1080 1006,-1086 1000,-1092 994,-1092 994,-1092 28,-1092 28,-1092 22,-1092 16,-1086 16,-1080 16,-1080 16,-28 16,-28 16,-22 22,-16 28,-16"/>
<text text-anchor="middle" x="511" y="-1076.8" font-family="Arial" font-size="14.00" fill="#000000">system </text>
<text text-anchor="middle" x="511" y="-1061.8" font-family="Arial" font-size="14.00" fill="#000000">: System</text>
</a>
</g>
</g>
<g id="clust3" class="cluster">
<title>cluster_system_membus</title>
<g id="a_clust3"><a xlink:title="clk_domain=system.clk_domain&#10;default_p_state=UNDEFINED&#10;eventq_index=0&#10;forward_latency=4&#10;frontend_latency=3&#10;p_state_clk_gate_bins=20&#10;p_state_clk_gate_max=1000000000000&#10;p_state_clk_gate_min=1000&#10;point_of_coherency=true&#10;power_model=Null&#10;response_latency=2&#10;snoop_filter=system.membus.snoop_filter&#10;snoop_response_latency=4&#10;system=system&#10;use_default_range=false&#10;width=16">
<path fill="#6f798c" stroke="#000000" d="M637,-870C637,-870 761,-870 761,-870 767,-870 773,-876 773,-882 773,-882 773,-949 773,-949 773,-955 767,-961 761,-961 761,-961 637,-961 637,-961 631,-961 625,-955 625,-949 625,-949 625,-882 625,-882 625,-876 631,-870 637,-870"/>
<text text-anchor="middle" x="699" y="-945.8" font-family="Arial" font-size="14.00" fill="#000000">membus </text>
<text text-anchor="middle" x="699" y="-930.8" font-family="Arial" font-size="14.00" fill="#000000">: SystemXBar</text>
</a>
</g>
</g>
<g id="clust5" class="cluster">
<title>cluster_system_tol2bus</title>
<g id="a_clust5"><a xlink:title="clk_domain=system.cpu_clk_domain&#10;default_p_state=UNDEFINED&#10;eventq_index=0&#10;forward_latency=0&#10;frontend_latency=1&#10;p_state_clk_gate_bins=20&#10;p_state_clk_gate_max=1000000000000&#10;p_state_clk_gate_min=1000&#10;point_of_coherency=false&#10;power_model=Null&#10;response_latency=1&#10;snoop_filter=system.tol2bus.snoop_filter&#10;snoop_response_latency=1&#10;system=system&#10;use_default_range=false&#10;width=32">
<path fill="#6f798c" stroke="#000000" d="M589,-417C589,-417 713,-417 713,-417 719,-417 725,-423 725,-429 725,-429 725,-496 725,-496 725,-502 719,-508 713,-508 713,-508 589,-508 589,-508 583,-508 577,-502 577,-496 577,-496 577,-429 577,-429 577,-423 583,-417 589,-417"/>
<text text-anchor="middle" x="651" y="-492.8" font-family="Arial" font-size="14.00" fill="#000000">tol2bus </text>
<text text-anchor="middle" x="651" y="-477.8" font-family="Arial" font-size="14.00" fill="#000000">: L2XBar</text>
</a>
</g>
</g>
<g id="clust9" class="cluster">
<title>cluster_system_tol3bus</title>
<g id="a_clust9"><a xlink:title="clk_domain=system.cpu_clk_domain&#10;default_p_state=UNDEFINED&#10;eventq_index=0&#10;forward_latency=0&#10;frontend_latency=1&#10;p_state_clk_gate_bins=20&#10;p_state_clk_gate_max=1000000000000&#10;p_state_clk_gate_min=1000&#10;point_of_coherency=false&#10;power_model=Null&#10;response_latency=1&#10;snoop_filter=Null&#10;snoop_response_latency=1&#10;system=system&#10;use_default_range=false&#10;width=32">
<path fill="#6f798c" stroke="#000000" d="M758,-155C758,-155 882,-155 882,-155 888,-155 894,-161 894,-167 894,-167 894,-234 894,-234 894,-240 888,-246 882,-246 882,-246 758,-246 758,-246 752,-246 746,-240 746,-234 746,-234 746,-167 746,-167 746,-161 752,-155 758,-155"/>
<text text-anchor="middle" x="820" y="-230.8" font-family="Arial" font-size="14.00" fill="#000000">tol3bus </text>
<text text-anchor="middle" x="820" y="-215.8" font-family="Arial" font-size="14.00" fill="#000000">: L3XBar</text>
</a>
</g>
</g>
<g id="clust10" class="cluster">
<title>cluster_system_l2</title>
<g id="a_clust10"><a xlink:title="addr_ranges=0:18446744073709551615:0:0:0:0&#10;assoc=8&#10;clk_domain=system.cpu_clk_domain&#10;clusivity=mostly_incl&#10;data_latency=20&#10;default_p_state=UNDEFINED&#10;demand_mshr_reserve=1&#10;eventq_index=0&#10;is_read_only=false&#10;max_miss_count=0&#10;mshrs=20&#10;p_state_clk_gate_bins=20&#10;p_state_clk_gate_max=1000000000000&#10;p_state_clk_gate_min=1000&#10;power_model=Null&#10;prefetch_on_access=false&#10;prefetcher=Null&#10;response_latency=20&#10;sequential_access=false&#10;size=262144&#10;system=system&#10;tag_latency=20&#10;tags=system.l2.tags&#10;tgts_per_mshr=12&#10;write_buffers=8&#10;writeback_clean=false">
<path fill="#bab6ae" stroke="#000000" d="M655,-286C655,-286 817,-286 817,-286 823,-286 829,-292 829,-298 829,-298 829,-365 829,-365 829,-371 823,-377 817,-377 817,-377 655,-377 655,-377 649,-377 643,-371 643,-365 643,-365 643,-298 643,-298 643,-292 649,-286 655,-286"/>
<text text-anchor="middle" x="736" y="-361.8" font-family="Arial" font-size="14.00" fill="#000000">l2 </text>
<text text-anchor="middle" x="736" y="-346.8" font-family="Arial" font-size="14.00" fill="#000000">: L2Cache</text>
</a>
</g>
</g>
<g id="clust12" class="cluster">
<title>cluster_system_l3</title>
<g id="a_clust12"><a xlink:title="addr_ranges=0:18446744073709551615:0:0:0:0&#10;assoc=16&#10;clk_domain=system.cpu_clk_domain&#10;clusivity=mostly_incl&#10;data_latency=32&#10;default_p_state=UNDEFINED&#10;demand_mshr_reserve=1&#10;eventq_index=0&#10;is_read_only=false&#10;max_miss_count=0&#10;mshrs=32&#10;p_state_clk_gate_bins=20&#10;p_state_clk_gate_max=1000000000000&#10;p_state_clk_gate_min=1000&#10;power_model=Null&#10;prefetch_on_access=false&#10;prefetcher=Null&#10;response_latency=32&#10;sequential_access=false&#10;size=8388608&#10;system=system&#10;tag_latency=32&#10;tags=system.l3.tags&#10;tgts_per_mshr=24&#10;write_buffers=16&#10;writeback_clean=false">
<path fill="#bab6ae" stroke="#000000" d="M824,-24C824,-24 986,-24 986,-24 992,-24 998,-30 998,-36 998,-36 998,-103 998,-103 998,-109 992,-115 986,-115 986,-115 824,-115 824,-115 818,-115 812,-109 812,-103 812,-103 812,-36 812,-36 812,-30 818,-24 824,-24"/>
<text text-anchor="middle" x="905" y="-99.8" font-family="Arial" font-size="14.00" fill="#000000">l3 </text>
<text text-anchor="middle" x="905" y="-84.8" font-family="Arial" font-size="14.00" fill="#000000">: L3Cache</text>
</a>
</g>
</g>
<g id="clust15" class="cluster">
<title>cluster_system_mem_ctrls</title>
<g id="a_clust15"><a xlink:title="IDD0=0.055000&#10;IDD02=0.000000&#10;IDD2N=0.032000&#10;IDD2N2=0.000000&#10;IDD2P0=0.000000&#10;IDD2P02=0.000000&#10;IDD2P1=0.032000&#10;IDD2P12=0.000000&#10;IDD3N=0.038000&#10;IDD3N2=0.000000&#10;IDD3P0=0.000000&#10;IDD3P02=0.000000&#10;IDD3P1=0.038000&#10;IDD3P12=0.000000&#10;IDD4R=0.157000&#10;IDD4R2=0.000000&#10;IDD4W=0.125000&#10;IDD4W2=0.000000&#10;IDD5=0.235000&#10;IDD52=0.000000&#10;IDD6=0.020000&#10;IDD62=0.000000&#10;VDD=1.500000&#10;VDD2=0.000000&#10;activation_limit=4&#10;addr_mapping=RoRaBaCoCh&#10;bank_groups_per_rank=0&#10;banks_per_rank=8&#10;burst_length=8&#10;channels=1&#10;clk_domain=system.clk_domain&#10;conf_table_reported=true&#10;default_p_state=UNDEFINED&#10;device_bus_width=8&#10;device_rowbuffer_size=1024&#10;device_size=536870912&#10;devices_per_rank=8&#10;dll=true&#10;eventq_index=0&#10;in_addr_map=true&#10;kvm_map=true&#10;max_accesses_per_row=16&#10;mem_sched_policy=frfcfs&#10;min_writes_per_switch=16&#10;null=false&#10;p_state_clk_gate_bins=20&#10;p_state_clk_gate_max=1000000000000&#10;p_state_clk_gate_min=1000&#10;page_policy=open_adaptive&#10;power_model=Null&#10;range=0:4294967295:6:19:0:0&#10;ranks_per_channel=2&#10;read_buffer_size=32&#10;static_backend_latency=10000&#10;static_frontend_latency=10000&#10;tBURST=5000&#10;tCCD_L=0&#10;tCK=1250&#10;tCL=13750&#10;tCS=2500&#10;tRAS=35000&#10;tRCD=13750&#10;tREFI=7800000&#10;tRFC=260000&#10;tRP=13750&#10;tRRD=6000&#10;tRRD_L=0&#10;tRTP=7500&#10;tRTW=2500&#10;tWR=15000&#10;tWTR=7500&#10;tXAW=30000&#10;tXP=6000&#10;tXPDLL=0&#10;tXS=270000&#10;tXSDLL=0&#10;write_buffer_size=64&#10;write_high_thresh_perc=85&#10;write_low_thresh_perc=50">
<path fill="#5e5958" stroke="#000000" d="M36,-679C36,-679 140,-679 140,-679 146,-679 152,-685 152,-691 152,-691 152,-758 152,-758 152,-764 146,-770 140,-770 140,-770 36,-770 36,-770 30,-770 24,-764 24,-758 24,-758 24,-691 24,-691 24,-685 30,-679 36,-679"/>
<text text-anchor="middle" x="88" y="-754.8" font-family="Arial" font-size="14.00" fill="#000000">mem_ctrls </text>
<text text-anchor="middle" x="88" y="-739.8" font-family="Arial" font-size="14.00" fill="#000000">: DDR3_1600_8x8</text>
</a>
</g>
</g>
<g id="clust18" class="cluster">
<title>cluster_system_cpu</title>
<g id="a_clust18"><a xlink:title="branchPred=Null&#10;checker=Null&#10;clk_domain=system.cpu_clk_domain&#10;cpu_id=0&#10;default_p_state=UNDEFINED&#10;do_checkpoint_insts=true&#10;do_quiesce=true&#10;do_statistics_insts=true&#10;dtb=system.cpu.dtb&#10;eventq_index=0&#10;fastmem=false&#10;function_trace=false&#10;function_trace_start=0&#10;interrupts=system.cpu.interrupts&#10;isa=system.cpu.isa&#10;itb=system.cpu.itb&#10;max_insts_all_threads=0&#10;max_insts_any_thread=0&#10;max_loads_all_threads=0&#10;max_loads_any_thread=0&#10;numThreads=1&#10;p_state_clk_gate_bins=20&#10;p_state_clk_gate_max=1000000000000&#10;p_state_clk_gate_min=1000&#10;power_model=Null&#10;profile=0&#10;progress_interval=0&#10;simpoint_start_insts=&#10;simulate_data_stalls=false&#10;simulate_inst_stalls=false&#10;socket_id=0&#10;switched_out=false&#10;syscallRetryLatency=10000&#10;system=system&#10;tracer=system.cpu.tracer&#10;wait_for_remote_gdb=false&#10;width=1&#10;workload=system.cpu.workload">
<path fill="#bbc6d9" stroke="#000000" d="M172,-540C172,-540 976,-540 976,-540 982,-540 988,-546 988,-552 988,-552 988,-850 988,-850 988,-856 982,-862 976,-862 976,-862 172,-862 172,-862 166,-862 160,-856 160,-850 160,-850 160,-552 160,-552 160,-546 166,-540 172,-540"/>
<text text-anchor="middle" x="574" y="-846.8" font-family="Arial" font-size="14.00" fill="#000000">cpu </text>
<text text-anchor="middle" x="574" y="-831.8" font-family="Arial" font-size="14.00" fill="#000000">: AtomicSimpleCPU</text>
</a>
</g>
</g>
<g id="clust19" class="cluster">
<title>cluster_system_cpu_icache</title>
<g id="a_clust19"><a xlink:title="addr_ranges=0:18446744073709551615:0:0:0:0&#10;assoc=2&#10;clk_domain=system.cpu_clk_domain&#10;clusivity=mostly_incl&#10;data_latency=2&#10;default_p_state=UNDEFINED&#10;demand_mshr_reserve=1&#10;eventq_index=0&#10;is_read_only=true&#10;max_miss_count=0&#10;mshrs=4&#10;p_state_clk_gate_bins=20&#10;p_state_clk_gate_max=1000000000000&#10;p_state_clk_gate_min=1000&#10;power_model=Null&#10;prefetch_on_access=false&#10;prefetcher=Null&#10;response_latency=2&#10;sequential_access=false&#10;size=32768&#10;system=system&#10;tag_latency=2&#10;tags=system.cpu.icache.tags&#10;tgts_per_mshr=20&#10;write_buffers=8&#10;writeback_clean=true">
<path fill="#bab6ae" stroke="#000000" d="M375,-548C375,-548 537,-548 537,-548 543,-548 549,-554 549,-560 549,-560 549,-627 549,-627 549,-633 543,-639 537,-639 537,-639 375,-639 375,-639 369,-639 363,-633 363,-627 363,-627 363,-560 363,-560 363,-554 369,-548 375,-548"/>
<text text-anchor="middle" x="456" y="-623.8" font-family="Arial" font-size="14.00" fill="#000000">icache </text>
<text text-anchor="middle" x="456" y="-608.8" font-family="Arial" font-size="14.00" fill="#000000">: L1_ICache</text>
</a>
</g>
</g>
<g id="clust22" class="cluster">
<title>cluster_system_cpu_dtb</title>
<g id="a_clust22"><a xlink:title="eventq_index=0&#10;size=64&#10;walker=system.cpu.dtb.walker">
<path fill="#bab6ae" stroke="#000000" d="M824,-671C824,-671 968,-671 968,-671 974,-671 980,-677 980,-683 980,-683 980,-804 980,-804 980,-810 974,-816 968,-816 968,-816 824,-816 824,-816 818,-816 812,-810 812,-804 812,-804 812,-683 812,-683 812,-677 818,-671 824,-671"/>
<text text-anchor="middle" x="896" y="-800.8" font-family="Arial" font-size="14.00" fill="#000000">dtb </text>
<text text-anchor="middle" x="896" y="-785.8" font-family="Arial" font-size="14.00" fill="#000000">: X86TLB</text>
</a>
</g>
</g>
<g id="clust23" class="cluster">
<title>cluster_system_cpu_dtb_walker</title>
<g id="a_clust23"><a xlink:title="clk_domain=system.cpu_clk_domain&#10;default_p_state=UNDEFINED&#10;eventq_index=0&#10;num_squash_per_cycle=4&#10;p_state_clk_gate_bins=20&#10;p_state_clk_gate_max=1000000000000&#10;p_state_clk_gate_min=1000&#10;power_model=Null&#10;system=system">
<path fill="#9f9c95" stroke="#000000" d="M832,-679C832,-679 960,-679 960,-679 966,-679 972,-685 972,-691 972,-691 972,-758 972,-758 972,-764 966,-770 960,-770 960,-770 832,-770 832,-770 826,-770 820,-764 820,-758 820,-758 820,-691 820,-691 820,-685 826,-679 832,-679"/>
<text text-anchor="middle" x="896" y="-754.8" font-family="Arial" font-size="14.00" fill="#000000">walker </text>
<text text-anchor="middle" x="896" y="-739.8" font-family="Arial" font-size="14.00" fill="#000000">: X86PagetableWalker</text>
</a>
</g>
</g>
<g id="clust24" class="cluster">
<title>cluster_system_cpu_interrupts</title>
<g id="a_clust24"><a xlink:title="clk_domain=system.cpu.apic_clk_domain&#10;default_p_state=UNDEFINED&#10;eventq_index=0&#10;int_latency=1000&#10;p_state_clk_gate_bins=20&#10;p_state_clk_gate_max=1000000000000&#10;p_state_clk_gate_min=1000&#10;pio_addr=2305843009213693952&#10;pio_latency=100000&#10;power_model=Null&#10;system=system">
<path fill="#c7a793" stroke="#000000" d="M560,-679C560,-679 792,-679 792,-679 798,-679 804,-685 804,-691 804,-691 804,-758 804,-758 804,-764 798,-770 792,-770 792,-770 560,-770 560,-770 554,-770 548,-764 548,-758 548,-758 548,-691 548,-691 548,-685 554,-679 560,-679"/>
<text text-anchor="middle" x="676" y="-754.8" font-family="Arial" font-size="14.00" fill="#000000">interrupts </text>
<text text-anchor="middle" x="676" y="-739.8" font-family="Arial" font-size="14.00" fill="#000000">: X86LocalApic</text>
</a>
</g>
</g>
<g id="clust25" class="cluster">
<title>cluster_system_cpu_itb_walker_cache</title>
<g id="a_clust25"><a xlink:title="addr_ranges=0:18446744073709551615:0:0:0:0&#10;assoc=2&#10;clk_domain=system.cpu_clk_domain&#10;clusivity=mostly_incl&#10;data_latency=2&#10;default_p_state=UNDEFINED&#10;demand_mshr_reserve=1&#10;eventq_index=0&#10;is_read_only=false&#10;max_miss_count=0&#10;mshrs=10&#10;p_state_clk_gate_bins=20&#10;p_state_clk_gate_max=1000000000000&#10;p_state_clk_gate_min=1000&#10;power_model=Null&#10;prefetch_on_access=false&#10;prefetcher=Null&#10;response_latency=2&#10;sequential_access=false&#10;size=1024&#10;system=system&#10;tag_latency=2&#10;tags=system.cpu.itb_walker_cache.tags&#10;tgts_per_mshr=12&#10;write_buffers=8&#10;writeback_clean=false">
<path fill="#bab6ae" stroke="#000000" d="M569,-548C569,-548 731,-548 731,-548 737,-548 743,-554 743,-560 743,-560 743,-627 743,-627 743,-633 737,-639 731,-639 731,-639 569,-639 569,-639 563,-639 557,-633 557,-627 557,-627 557,-560 557,-560 557,-554 563,-548 569,-548"/>
<text text-anchor="middle" x="650" y="-623.8" font-family="Arial" font-size="14.00" fill="#000000">itb_walker_cache </text>
<text text-anchor="middle" x="650" y="-608.8" font-family="Arial" font-size="14.00" fill="#000000">: PageTableWalkerCache</text>
</a>
</g>
</g>
<g id="clust27" class="cluster">
<title>cluster_system_cpu_itb</title>
<g id="a_clust27"><a xlink:title="eventq_index=0&#10;size=64&#10;walker=system.cpu.itb.walker">
<path fill="#bab6ae" stroke="#000000" d="M384,-671C384,-671 528,-671 528,-671 534,-671 540,-677 540,-683 540,-683 540,-804 540,-804 540,-810 534,-816 528,-816 528,-816 384,-816 384,-816 378,-816 372,-810 372,-804 372,-804 372,-683 372,-683 372,-677 378,-671 384,-671"/>
<text text-anchor="middle" x="456" y="-800.8" font-family="Arial" font-size="14.00" fill="#000000">itb </text>
<text text-anchor="middle" x="456" y="-785.8" font-family="Arial" font-size="14.00" fill="#000000">: X86TLB</text>
</a>
</g>
</g>
<g id="clust28" class="cluster">
<title>cluster_system_cpu_itb_walker</title>
<g id="a_clust28"><a xlink:title="clk_domain=system.cpu_clk_domain&#10;default_p_state=UNDEFINED&#10;eventq_index=0&#10;num_squash_per_cycle=4&#10;p_state_clk_gate_bins=20&#10;p_state_clk_gate_max=1000000000000&#10;p_state_clk_gate_min=1000&#10;power_model=Null&#10;system=system">
<path fill="#9f9c95" stroke="#000000" d="M392,-679C392,-679 520,-679 520,-679 526,-679 532,-685 532,-691 532,-691 532,-758 532,-758 532,-764 526,-770 520,-770 520,-770 392,-770 392,-770 386,-770 380,-764 380,-758 380,-758 380,-691 380,-691 380,-685 386,-679 392,-679"/>
<text text-anchor="middle" x="456" y="-754.8" font-family="Arial" font-size="14.00" fill="#000000">walker </text>
<text text-anchor="middle" x="456" y="-739.8" font-family="Arial" font-size="14.00" fill="#000000">: X86PagetableWalker</text>
</a>
</g>
</g>
<g id="clust29" class="cluster">
<title>cluster_system_cpu_dtb_walker_cache</title>
<g id="a_clust29"><a xlink:title="addr_ranges=0:18446744073709551615:0:0:0:0&#10;assoc=2&#10;clk_domain=system.cpu_clk_domain&#10;clusivity=mostly_incl&#10;data_latency=2&#10;default_p_state=UNDEFINED&#10;demand_mshr_reserve=1&#10;eventq_index=0&#10;is_read_only=false&#10;max_miss_count=0&#10;mshrs=10&#10;p_state_clk_gate_bins=20&#10;p_state_clk_gate_max=1000000000000&#10;p_state_clk_gate_min=1000&#10;power_model=Null&#10;prefetch_on_access=false&#10;prefetcher=Null&#10;response_latency=2&#10;sequential_access=false&#10;size=1024&#10;system=system&#10;tag_latency=2&#10;tags=system.cpu.dtb_walker_cache.tags&#10;tgts_per_mshr=12&#10;write_buffers=8&#10;writeback_clean=false">
<path fill="#bab6ae" stroke="#000000" d="M784,-548C784,-548 946,-548 946,-548 952,-548 958,-554 958,-560 958,-560 958,-627 958,-627 958,-633 952,-639 946,-639 946,-639 784,-639 784,-639 778,-639 772,-633 772,-627 772,-627 772,-560 772,-560 772,-554 778,-548 784,-548"/>
<text text-anchor="middle" x="865" y="-623.8" font-family="Arial" font-size="14.00" fill="#000000">dtb_walker_cache </text>
<text text-anchor="middle" x="865" y="-608.8" font-family="Arial" font-size="14.00" fill="#000000">: PageTableWalkerCache</text>
</a>
</g>
</g>
<g id="clust32" class="cluster">
<title>cluster_system_cpu_dcache</title>
<g id="a_clust32"><a xlink:title="addr_ranges=0:18446744073709551615:0:0:0:0&#10;assoc=2&#10;clk_domain=system.cpu_clk_domain&#10;clusivity=mostly_incl&#10;data_latency=2&#10;default_p_state=UNDEFINED&#10;demand_mshr_reserve=1&#10;eventq_index=0&#10;is_read_only=false&#10;max_miss_count=0&#10;mshrs=4&#10;p_state_clk_gate_bins=20&#10;p_state_clk_gate_max=1000000000000&#10;p_state_clk_gate_min=1000&#10;power_model=Null&#10;prefetch_on_access=false&#10;prefetcher=Null&#10;response_latency=2&#10;sequential_access=false&#10;size=32768&#10;system=system&#10;tag_latency=2&#10;tags=system.cpu.dcache.tags&#10;tgts_per_mshr=20&#10;write_buffers=8&#10;writeback_clean=false">
<path fill="#bab6ae" stroke="#000000" d="M181,-548C181,-548 343,-548 343,-548 349,-548 355,-554 355,-560 355,-560 355,-627 355,-627 355,-633 349,-639 343,-639 343,-639 181,-639 181,-639 175,-639 169,-633 169,-627 169,-627 169,-560 169,-560 169,-554 175,-548 181,-548"/>
<text text-anchor="middle" x="262" y="-623.8" font-family="Arial" font-size="14.00" fill="#000000">dcache </text>
<text text-anchor="middle" x="262" y="-608.8" font-family="Arial" font-size="14.00" fill="#000000">: L1_DCache</text>
</a>
</g>
</g>
<!-- system_system_port -->
<g id="node1" class="node">
<title>system_system_port</title>
<path fill="#b6b8bc" stroke="#000000" d="M704.5,-1009.5C704.5,-1009.5 771.5,-1009.5 771.5,-1009.5 777.5,-1009.5 783.5,-1015.5 783.5,-1021.5 783.5,-1021.5 783.5,-1033.5 783.5,-1033.5 783.5,-1039.5 777.5,-1045.5 771.5,-1045.5 771.5,-1045.5 704.5,-1045.5 704.5,-1045.5 698.5,-1045.5 692.5,-1039.5 692.5,-1033.5 692.5,-1033.5 692.5,-1021.5 692.5,-1021.5 692.5,-1015.5 698.5,-1009.5 704.5,-1009.5"/>
<text text-anchor="middle" x="738" y="-1023.8" font-family="Arial" font-size="14.00" fill="#000000">system_port</text>
</g>
<!-- system_membus_slave -->
<g id="node3" class="node">
<title>system_membus_slave</title>
<path fill="#586070" stroke="#000000" d="M723,-878.5C723,-878.5 753,-878.5 753,-878.5 759,-878.5 765,-884.5 765,-890.5 765,-890.5 765,-902.5 765,-902.5 765,-908.5 759,-914.5 753,-914.5 753,-914.5 723,-914.5 723,-914.5 717,-914.5 711,-908.5 711,-902.5 711,-902.5 711,-890.5 711,-890.5 711,-884.5 717,-878.5 723,-878.5"/>
<text text-anchor="middle" x="738" y="-892.8" font-family="Arial" font-size="14.00" fill="#000000">slave</text>
</g>
<!-- system_system_port&#45;&gt;system_membus_slave -->
<g id="edge1" class="edge">
<title>system_system_port&#45;&gt;system_membus_slave</title>
<path fill="none" stroke="#000000" d="M738,-1009.285C738,-987.3856 738,-950.3861 738,-924.7663"/>
<polygon fill="#000000" stroke="#000000" points="741.5001,-924.5603 738,-914.5603 734.5001,-924.5603 741.5001,-924.5603"/>
</g>
<!-- system_membus_master -->
<g id="node2" class="node">
<title>system_membus_master</title>
<path fill="#586070" stroke="#000000" d="M645.5,-878.5C645.5,-878.5 680.5,-878.5 680.5,-878.5 686.5,-878.5 692.5,-884.5 692.5,-890.5 692.5,-890.5 692.5,-902.5 692.5,-902.5 692.5,-908.5 686.5,-914.5 680.5,-914.5 680.5,-914.5 645.5,-914.5 645.5,-914.5 639.5,-914.5 633.5,-908.5 633.5,-902.5 633.5,-902.5 633.5,-890.5 633.5,-890.5 633.5,-884.5 639.5,-878.5 645.5,-878.5"/>
<text text-anchor="middle" x="663" y="-892.8" font-family="Arial" font-size="14.00" fill="#000000">master</text>
</g>
<!-- system_mem_ctrls_port -->
<g id="node12" class="node">
<title>system_mem_ctrls_port</title>
<path fill="#4b4746" stroke="#000000" d="M102,-687.5C102,-687.5 132,-687.5 132,-687.5 138,-687.5 144,-693.5 144,-699.5 144,-699.5 144,-711.5 144,-711.5 144,-717.5 138,-723.5 132,-723.5 132,-723.5 102,-723.5 102,-723.5 96,-723.5 90,-717.5 90,-711.5 90,-711.5 90,-699.5 90,-699.5 90,-693.5 96,-687.5 102,-687.5"/>
<text text-anchor="middle" x="117" y="-701.8" font-family="Arial" font-size="14.00" fill="#000000">port</text>
</g>
<!-- system_membus_master&#45;&gt;system_mem_ctrls_port -->
<g id="edge4" class="edge">
<title>system_membus_master&#45;&gt;system_mem_ctrls_port</title>
<path fill="none" stroke="#000000" d="M633.2957,-895.4388C527.5016,-891.5359 174.3878,-877.4018 156,-862 118.7467,-830.7963 114.0794,-769.9767 114.9375,-734.0357"/>
<polygon fill="#000000" stroke="#000000" points="118.4467,-733.8732 115.3512,-723.7407 111.4524,-733.5921 118.4467,-733.8732"/>
</g>
<!-- system_cpu_interrupts_int_slave -->
<g id="node18" class="node">
<title>system_cpu_interrupts_int_slave</title>
<path fill="#9f8575" stroke="#000000" d="M640,-687.5C640,-687.5 686,-687.5 686,-687.5 692,-687.5 698,-693.5 698,-699.5 698,-699.5 698,-711.5 698,-711.5 698,-717.5 692,-723.5 686,-723.5 686,-723.5 640,-723.5 640,-723.5 634,-723.5 628,-717.5 628,-711.5 628,-711.5 628,-699.5 628,-699.5 628,-693.5 634,-687.5 640,-687.5"/>
<text text-anchor="middle" x="663" y="-701.8" font-family="Arial" font-size="14.00" fill="#000000">int_slave</text>
</g>
<!-- system_membus_master&#45;&gt;system_cpu_interrupts_int_slave -->
<g id="edge3" class="edge">
<title>system_membus_master&#45;&gt;system_cpu_interrupts_int_slave</title>
<path fill="none" stroke="#000000" d="M663,-878.1861C663,-844.7443 663,-773.586 663,-733.8441"/>
<polygon fill="#000000" stroke="#000000" points="666.5001,-733.7584 663,-723.7584 659.5001,-733.7585 666.5001,-733.7584"/>
</g>
<!-- system_cpu_interrupts_pio -->
<g id="node20" class="node">
<title>system_cpu_interrupts_pio</title>
<path fill="#9f8575" stroke="#000000" d="M568,-687.5C568,-687.5 598,-687.5 598,-687.5 604,-687.5 610,-693.5 610,-699.5 610,-699.5 610,-711.5 610,-711.5 610,-717.5 604,-723.5 598,-723.5 598,-723.5 568,-723.5 568,-723.5 562,-723.5 556,-717.5 556,-711.5 556,-711.5 556,-699.5 556,-699.5 556,-693.5 562,-687.5 568,-687.5"/>
<text text-anchor="middle" x="583" y="-701.8" font-family="Arial" font-size="14.00" fill="#000000">pio</text>
</g>
<!-- system_membus_master&#45;&gt;system_cpu_interrupts_pio -->
<g id="edge2" class="edge">
<title>system_membus_master&#45;&gt;system_cpu_interrupts_pio</title>
<path fill="none" stroke="#000000" d="M633.7446,-878.1752C628.1534,-873.5038 622.8519,-868.0632 619,-862 593.8829,-822.4636 586.2282,-767.4159 583.9334,-734.245"/>
<polygon fill="#000000" stroke="#000000" points="587.4066,-733.673 583.3432,-723.8884 580.4179,-734.0714 587.4066,-733.673"/>
</g>
<!-- system_tol2bus_master -->
<g id="node4" class="node">
<title>system_tol2bus_master</title>
<path fill="#586070" stroke="#000000" d="M669.5,-425.5C669.5,-425.5 704.5,-425.5 704.5,-425.5 710.5,-425.5 716.5,-431.5 716.5,-437.5 716.5,-437.5 716.5,-449.5 716.5,-449.5 716.5,-455.5 710.5,-461.5 704.5,-461.5 704.5,-461.5 669.5,-461.5 669.5,-461.5 663.5,-461.5 657.5,-455.5 657.5,-449.5 657.5,-449.5 657.5,-437.5 657.5,-437.5 657.5,-431.5 663.5,-425.5 669.5,-425.5"/>
<text text-anchor="middle" x="687" y="-439.8" font-family="Arial" font-size="14.00" fill="#000000">master</text>
</g>
<!-- system_l2_cpu_side -->
<g id="node9" class="node">
<title>system_l2_cpu_side</title>
<path fill="#94918b" stroke="#000000" d="M663.5,-294.5C663.5,-294.5 710.5,-294.5 710.5,-294.5 716.5,-294.5 722.5,-300.5 722.5,-306.5 722.5,-306.5 722.5,-318.5 722.5,-318.5 722.5,-324.5 716.5,-330.5 710.5,-330.5 710.5,-330.5 663.5,-330.5 663.5,-330.5 657.5,-330.5 651.5,-324.5 651.5,-318.5 651.5,-318.5 651.5,-306.5 651.5,-306.5 651.5,-300.5 657.5,-294.5 663.5,-294.5"/>
<text text-anchor="middle" x="687" y="-308.8" font-family="Arial" font-size="14.00" fill="#000000">cpu_side</text>
</g>
<!-- system_tol2bus_master&#45;&gt;system_l2_cpu_side -->
<g id="edge5" class="edge">
<title>system_tol2bus_master&#45;&gt;system_l2_cpu_side</title>
<path fill="none" stroke="#000000" d="M687,-425.285C687,-403.3856 687,-366.3861 687,-340.7663"/>
<polygon fill="#000000" stroke="#000000" points="690.5001,-340.5603 687,-330.5603 683.5001,-340.5603 690.5001,-340.5603"/>
</g>
<!-- system_tol2bus_slave -->
<g id="node5" class="node">
<title>system_tol2bus_slave</title>
<path fill="#586070" stroke="#000000" d="M597,-425.5C597,-425.5 627,-425.5 627,-425.5 633,-425.5 639,-431.5 639,-437.5 639,-437.5 639,-449.5 639,-449.5 639,-455.5 633,-461.5 627,-461.5 627,-461.5 597,-461.5 597,-461.5 591,-461.5 585,-455.5 585,-449.5 585,-449.5 585,-437.5 585,-437.5 585,-431.5 591,-425.5 597,-425.5"/>
<text text-anchor="middle" x="612" y="-439.8" font-family="Arial" font-size="14.00" fill="#000000">slave</text>
</g>
<!-- system_tol3bus_master -->
<g id="node6" class="node">
<title>system_tol3bus_master</title>
<path fill="#586070" stroke="#000000" d="M838.5,-163.5C838.5,-163.5 873.5,-163.5 873.5,-163.5 879.5,-163.5 885.5,-169.5 885.5,-175.5 885.5,-175.5 885.5,-187.5 885.5,-187.5 885.5,-193.5 879.5,-199.5 873.5,-199.5 873.5,-199.5 838.5,-199.5 838.5,-199.5 832.5,-199.5 826.5,-193.5 826.5,-187.5 826.5,-187.5 826.5,-175.5 826.5,-175.5 826.5,-169.5 832.5,-163.5 838.5,-163.5"/>
<text text-anchor="middle" x="856" y="-177.8" font-family="Arial" font-size="14.00" fill="#000000">master</text>
</g>
<!-- system_l3_cpu_side -->
<g id="node11" class="node">
<title>system_l3_cpu_side</title>
<path fill="#94918b" stroke="#000000" d="M832.5,-32.5C832.5,-32.5 879.5,-32.5 879.5,-32.5 885.5,-32.5 891.5,-38.5 891.5,-44.5 891.5,-44.5 891.5,-56.5 891.5,-56.5 891.5,-62.5 885.5,-68.5 879.5,-68.5 879.5,-68.5 832.5,-68.5 832.5,-68.5 826.5,-68.5 820.5,-62.5 820.5,-56.5 820.5,-56.5 820.5,-44.5 820.5,-44.5 820.5,-38.5 826.5,-32.5 832.5,-32.5"/>
<text text-anchor="middle" x="856" y="-46.8" font-family="Arial" font-size="14.00" fill="#000000">cpu_side</text>
</g>
<!-- system_tol3bus_master&#45;&gt;system_l3_cpu_side -->
<g id="edge6" class="edge">
<title>system_tol3bus_master&#45;&gt;system_l3_cpu_side</title>
<path fill="none" stroke="#000000" d="M856,-163.285C856,-141.3856 856,-104.3861 856,-78.7663"/>
<polygon fill="#000000" stroke="#000000" points="859.5001,-78.5603 856,-68.5603 852.5001,-78.5603 859.5001,-78.5603"/>
</g>
<!-- system_tol3bus_slave -->
<g id="node7" class="node">
<title>system_tol3bus_slave</title>
<path fill="#586070" stroke="#000000" d="M766,-163.5C766,-163.5 796,-163.5 796,-163.5 802,-163.5 808,-169.5 808,-175.5 808,-175.5 808,-187.5 808,-187.5 808,-193.5 802,-199.5 796,-199.5 796,-199.5 766,-199.5 766,-199.5 760,-199.5 754,-193.5 754,-187.5 754,-187.5 754,-175.5 754,-175.5 754,-169.5 760,-163.5 766,-163.5"/>
<text text-anchor="middle" x="781" y="-177.8" font-family="Arial" font-size="14.00" fill="#000000">slave</text>
</g>
<!-- system_l2_mem_side -->
<g id="node8" class="node">
<title>system_l2_mem_side</title>
<path fill="#94918b" stroke="#000000" d="M753,-294.5C753,-294.5 809,-294.5 809,-294.5 815,-294.5 821,-300.5 821,-306.5 821,-306.5 821,-318.5 821,-318.5 821,-324.5 815,-330.5 809,-330.5 809,-330.5 753,-330.5 753,-330.5 747,-330.5 741,-324.5 741,-318.5 741,-318.5 741,-306.5 741,-306.5 741,-300.5 747,-294.5 753,-294.5"/>
<text text-anchor="middle" x="781" y="-308.8" font-family="Arial" font-size="14.00" fill="#000000">mem_side</text>
</g>
<!-- system_l2_mem_side&#45;&gt;system_tol3bus_slave -->
<g id="edge7" class="edge">
<title>system_l2_mem_side&#45;&gt;system_tol3bus_slave</title>
<path fill="none" stroke="#000000" d="M781,-294.285C781,-272.3856 781,-235.3861 781,-209.7663"/>
<polygon fill="#000000" stroke="#000000" points="784.5001,-209.5603 781,-199.5603 777.5001,-209.5603 784.5001,-209.5603"/>
</g>
<!-- system_l3_mem_side -->
<g id="node10" class="node">
<title>system_l3_mem_side</title>
<path fill="#94918b" stroke="#000000" d="M922,-32.5C922,-32.5 978,-32.5 978,-32.5 984,-32.5 990,-38.5 990,-44.5 990,-44.5 990,-56.5 990,-56.5 990,-62.5 984,-68.5 978,-68.5 978,-68.5 922,-68.5 922,-68.5 916,-68.5 910,-62.5 910,-56.5 910,-56.5 910,-44.5 910,-44.5 910,-38.5 916,-32.5 922,-32.5"/>
<text text-anchor="middle" x="950" y="-46.8" font-family="Arial" font-size="14.00" fill="#000000">mem_side</text>
</g>
<!-- system_l3_mem_side&#45;&gt;system_membus_slave -->
<g id="edge8" class="edge">
<title>system_l3_mem_side&#45;&gt;system_membus_slave</title>
<path fill="none" stroke="#000000" d="M955.5761,-68.7214C968.0259,-111.0726 997,-219.6135 997,-312.5 997,-574.5 997,-574.5 997,-574.5 997,-702.6182 1063.3188,-768.2466 976,-862 962.5225,-876.4706 838.6462,-888.4181 775.154,-893.6517"/>
<polygon fill="#000000" stroke="#000000" points="774.8258,-890.1667 765.141,-894.4626 775.3909,-897.1439 774.8258,-890.1667"/>
</g>
<!-- system_cpu_icache_port -->
<g id="node13" class="node">
<title>system_cpu_icache_port</title>
<path fill="#959ead" stroke="#000000" d="M290,-687.5C290,-687.5 352,-687.5 352,-687.5 358,-687.5 364,-693.5 364,-699.5 364,-699.5 364,-711.5 364,-711.5 364,-717.5 358,-723.5 352,-723.5 352,-723.5 290,-723.5 290,-723.5 284,-723.5 278,-717.5 278,-711.5 278,-711.5 278,-699.5 278,-699.5 278,-693.5 284,-687.5 290,-687.5"/>
<text text-anchor="middle" x="321" y="-701.8" font-family="Arial" font-size="14.00" fill="#000000">icache_port</text>
</g>
<!-- system_cpu_icache_cpu_side -->
<g id="node16" class="node">
<title>system_cpu_icache_cpu_side</title>
<path fill="#94918b" stroke="#000000" d="M383.5,-556.5C383.5,-556.5 430.5,-556.5 430.5,-556.5 436.5,-556.5 442.5,-562.5 442.5,-568.5 442.5,-568.5 442.5,-580.5 442.5,-580.5 442.5,-586.5 436.5,-592.5 430.5,-592.5 430.5,-592.5 383.5,-592.5 383.5,-592.5 377.5,-592.5 371.5,-586.5 371.5,-580.5 371.5,-580.5 371.5,-568.5 371.5,-568.5 371.5,-562.5 377.5,-556.5 383.5,-556.5"/>
<text text-anchor="middle" x="407" y="-570.8" font-family="Arial" font-size="14.00" fill="#000000">cpu_side</text>
</g>
<!-- system_cpu_icache_port&#45;&gt;system_cpu_icache_cpu_side -->
<g id="edge9" class="edge">
<title>system_cpu_icache_port&#45;&gt;system_cpu_icache_cpu_side</title>
<path fill="none" stroke="#000000" d="M332.9579,-687.285C347.6556,-664.8968 372.7137,-626.7268 389.5584,-601.068"/>
<polygon fill="#000000" stroke="#000000" points="392.5815,-602.8407 395.1436,-592.5603 386.7298,-598.9991 392.5815,-602.8407"/>
</g>
<!-- system_cpu_dcache_port -->
<g id="node14" class="node">
<title>system_cpu_dcache_port</title>
<path fill="#959ead" stroke="#000000" d="M180.5,-687.5C180.5,-687.5 247.5,-687.5 247.5,-687.5 253.5,-687.5 259.5,-693.5 259.5,-699.5 259.5,-699.5 259.5,-711.5 259.5,-711.5 259.5,-717.5 253.5,-723.5 247.5,-723.5 247.5,-723.5 180.5,-723.5 180.5,-723.5 174.5,-723.5 168.5,-717.5 168.5,-711.5 168.5,-711.5 168.5,-699.5 168.5,-699.5 168.5,-693.5 174.5,-687.5 180.5,-687.5"/>
<text text-anchor="middle" x="214" y="-701.8" font-family="Arial" font-size="14.00" fill="#000000">dcache_port</text>
</g>
<!-- system_cpu_dcache_cpu_side -->
<g id="node27" class="node">
<title>system_cpu_dcache_cpu_side</title>
<path fill="#94918b" stroke="#000000" d="M189.5,-556.5C189.5,-556.5 236.5,-556.5 236.5,-556.5 242.5,-556.5 248.5,-562.5 248.5,-568.5 248.5,-568.5 248.5,-580.5 248.5,-580.5 248.5,-586.5 242.5,-592.5 236.5,-592.5 236.5,-592.5 189.5,-592.5 189.5,-592.5 183.5,-592.5 177.5,-586.5 177.5,-580.5 177.5,-580.5 177.5,-568.5 177.5,-568.5 177.5,-562.5 183.5,-556.5 189.5,-556.5"/>
<text text-anchor="middle" x="213" y="-570.8" font-family="Arial" font-size="14.00" fill="#000000">cpu_side</text>
</g>
<!-- system_cpu_dcache_port&#45;&gt;system_cpu_dcache_cpu_side -->
<g id="edge10" class="edge">
<title>system_cpu_dcache_port&#45;&gt;system_cpu_dcache_cpu_side</title>
<path fill="none" stroke="#000000" d="M213.861,-687.285C213.6938,-665.3856 213.4113,-628.3861 213.2158,-602.7663"/>
<polygon fill="#000000" stroke="#000000" points="216.7142,-602.5332 213.1379,-592.5603 209.7144,-602.5867 216.7142,-602.5332"/>
</g>
<!-- system_cpu_icache_mem_side -->
<g id="node15" class="node">
<title>system_cpu_icache_mem_side</title>
<path fill="#94918b" stroke="#000000" d="M473,-556.5C473,-556.5 529,-556.5 529,-556.5 535,-556.5 541,-562.5 541,-568.5 541,-568.5 541,-580.5 541,-580.5 541,-586.5 535,-592.5 529,-592.5 529,-592.5 473,-592.5 473,-592.5 467,-592.5 461,-586.5 461,-580.5 461,-580.5 461,-568.5 461,-568.5 461,-562.5 467,-556.5 473,-556.5"/>
<text text-anchor="middle" x="501" y="-570.8" font-family="Arial" font-size="14.00" fill="#000000">mem_side</text>
</g>
<!-- system_cpu_icache_mem_side&#45;&gt;system_tol2bus_slave -->
<g id="edge11" class="edge">
<title>system_cpu_icache_mem_side&#45;&gt;system_tol2bus_slave</title>
<path fill="none" stroke="#000000" d="M516.4341,-556.285C535.57,-533.7012 568.3127,-495.0589 590.0554,-469.3986"/>
<polygon fill="#000000" stroke="#000000" points="592.9026,-471.4524 596.697,-461.5603 587.562,-466.9271 592.9026,-471.4524"/>
</g>
<!-- system_cpu_dtb_walker_port -->
<g id="node17" class="node">
<title>system_cpu_dtb_walker_port</title>
<path fill="#7f7c77" stroke="#000000" d="M840,-687.5C840,-687.5 870,-687.5 870,-687.5 876,-687.5 882,-693.5 882,-699.5 882,-699.5 882,-711.5 882,-711.5 882,-717.5 876,-723.5 870,-723.5 870,-723.5 840,-723.5 840,-723.5 834,-723.5 828,-717.5 828,-711.5 828,-711.5 828,-699.5 828,-699.5 828,-693.5 834,-687.5 840,-687.5"/>
<text text-anchor="middle" x="855" y="-701.8" font-family="Arial" font-size="14.00" fill="#000000">port</text>
</g>
<!-- system_cpu_dtb_walker_cache_cpu_side -->
<g id="node25" class="node">
<title>system_cpu_dtb_walker_cache_cpu_side</title>
<path fill="#94918b" stroke="#000000" d="M792.5,-556.5C792.5,-556.5 839.5,-556.5 839.5,-556.5 845.5,-556.5 851.5,-562.5 851.5,-568.5 851.5,-568.5 851.5,-580.5 851.5,-580.5 851.5,-586.5 845.5,-592.5 839.5,-592.5 839.5,-592.5 792.5,-592.5 792.5,-592.5 786.5,-592.5 780.5,-586.5 780.5,-580.5 780.5,-580.5 780.5,-568.5 780.5,-568.5 780.5,-562.5 786.5,-556.5 792.5,-556.5"/>
<text text-anchor="middle" x="816" y="-570.8" font-family="Arial" font-size="14.00" fill="#000000">cpu_side</text>
</g>
<!-- system_cpu_dtb_walker_port&#45;&gt;system_cpu_dtb_walker_cache_cpu_side -->
<g id="edge12" class="edge">
<title>system_cpu_dtb_walker_port&#45;&gt;system_cpu_dtb_walker_cache_cpu_side</title>
<path fill="none" stroke="#000000" d="M849.5772,-687.285C843.0284,-665.2878 831.944,-628.0554 824.3132,-602.4238"/>
<polygon fill="#000000" stroke="#000000" points="827.5846,-601.1459 821.3767,-592.5603 820.8756,-603.1433 827.5846,-601.1459"/>
</g>
<!-- system_cpu_interrupts_int_master -->
<g id="node19" class="node">
<title>system_cpu_interrupts_int_master</title>
<path fill="#9f8575" stroke="#000000" d="M728,-687.5C728,-687.5 784,-687.5 784,-687.5 790,-687.5 796,-693.5 796,-699.5 796,-699.5 796,-711.5 796,-711.5 796,-717.5 790,-723.5 784,-723.5 784,-723.5 728,-723.5 728,-723.5 722,-723.5 716,-717.5 716,-711.5 716,-711.5 716,-699.5 716,-699.5 716,-693.5 722,-687.5 728,-687.5"/>
<text text-anchor="middle" x="756" y="-701.8" font-family="Arial" font-size="14.00" fill="#000000">int_master</text>
</g>
<!-- system_cpu_interrupts_int_master&#45;&gt;system_membus_slave -->
<g id="edge13" class="edge">
<title>system_cpu_interrupts_int_master&#45;&gt;system_membus_slave</title>
<path fill="none" stroke="#000000" d="M754.2793,-723.7584C751.1317,-757.1585 744.426,-828.3133 740.6774,-868.09"/>
<polygon fill="#000000" stroke="#000000" points="737.1797,-867.9018 739.7259,-878.1861 744.1488,-868.5586 737.1797,-867.9018"/>
</g>
<!-- system_cpu_itb_walker_cache_mem_side -->
<g id="node21" class="node">
<title>system_cpu_itb_walker_cache_mem_side</title>
<path fill="#94918b" stroke="#000000" d="M667,-556.5C667,-556.5 723,-556.5 723,-556.5 729,-556.5 735,-562.5 735,-568.5 735,-568.5 735,-580.5 735,-580.5 735,-586.5 729,-592.5 723,-592.5 723,-592.5 667,-592.5 667,-592.5 661,-592.5 655,-586.5 655,-580.5 655,-580.5 655,-568.5 655,-568.5 655,-562.5 661,-556.5 667,-556.5"/>
<text text-anchor="middle" x="695" y="-570.8" font-family="Arial" font-size="14.00" fill="#000000">mem_side</text>
</g>
<!-- system_cpu_itb_walker_cache_mem_side&#45;&gt;system_tol2bus_slave -->
<g id="edge14" class="edge">
<title>system_cpu_itb_walker_cache_mem_side&#45;&gt;system_tol2bus_slave</title>
<path fill="none" stroke="#000000" d="M681.8873,-556.4316C672.4458,-543.2123 659.5641,-524.7389 649,-508 641.3344,-495.8538 633.3432,-482.0825 626.7574,-470.3927"/>
<polygon fill="#000000" stroke="#000000" points="629.742,-468.5587 621.81,-461.5349 623.6306,-471.9721 629.742,-468.5587"/>
</g>
<!-- system_cpu_itb_walker_cache_cpu_side -->
<g id="node22" class="node">
<title>system_cpu_itb_walker_cache_cpu_side</title>
<path fill="#94918b" stroke="#000000" d="M577.5,-556.5C577.5,-556.5 624.5,-556.5 624.5,-556.5 630.5,-556.5 636.5,-562.5 636.5,-568.5 636.5,-568.5 636.5,-580.5 636.5,-580.5 636.5,-586.5 630.5,-592.5 624.5,-592.5 624.5,-592.5 577.5,-592.5 577.5,-592.5 571.5,-592.5 565.5,-586.5 565.5,-580.5 565.5,-580.5 565.5,-568.5 565.5,-568.5 565.5,-562.5 571.5,-556.5 577.5,-556.5"/>
<text text-anchor="middle" x="601" y="-570.8" font-family="Arial" font-size="14.00" fill="#000000">cpu_side</text>
</g>
<!-- system_cpu_itb_walker_port -->
<g id="node23" class="node">
<title>system_cpu_itb_walker_port</title>
<path fill="#7f7c77" stroke="#000000" d="M482,-687.5C482,-687.5 512,-687.5 512,-687.5 518,-687.5 524,-693.5 524,-699.5 524,-699.5 524,-711.5 524,-711.5 524,-717.5 518,-723.5 512,-723.5 512,-723.5 482,-723.5 482,-723.5 476,-723.5 470,-717.5 470,-711.5 470,-711.5 470,-699.5 470,-699.5 470,-693.5 476,-687.5 482,-687.5"/>
<text text-anchor="middle" x="497" y="-701.8" font-family="Arial" font-size="14.00" fill="#000000">port</text>
</g>
<!-- system_cpu_itb_walker_port&#45;&gt;system_cpu_itb_walker_cache_cpu_side -->
<g id="edge15" class="edge">
<title>system_cpu_itb_walker_port&#45;&gt;system_cpu_itb_walker_cache_cpu_side</title>
<path fill="none" stroke="#000000" d="M512.7501,-687.398C524.1409,-674.1624 539.7871,-655.6833 553,-639 562.8327,-626.5847 573.3783,-612.5046 582.0734,-600.6742"/>
<polygon fill="#000000" stroke="#000000" points="584.9635,-602.6514 588.0411,-592.5134 579.3131,-598.5194 584.9635,-602.6514"/>
</g>
<!-- system_cpu_dtb_walker_cache_mem_side -->
<g id="node24" class="node">
<title>system_cpu_dtb_walker_cache_mem_side</title>
<path fill="#94918b" stroke="#000000" d="M882,-556.5C882,-556.5 938,-556.5 938,-556.5 944,-556.5 950,-562.5 950,-568.5 950,-568.5 950,-580.5 950,-580.5 950,-586.5 944,-592.5 938,-592.5 938,-592.5 882,-592.5 882,-592.5 876,-592.5 870,-586.5 870,-580.5 870,-580.5 870,-568.5 870,-568.5 870,-562.5 876,-556.5 882,-556.5"/>
<text text-anchor="middle" x="910" y="-570.8" font-family="Arial" font-size="14.00" fill="#000000">mem_side</text>
</g>
<!-- system_cpu_dtb_walker_cache_mem_side&#45;&gt;system_tol2bus_slave -->
<g id="edge16" class="edge">
<title>system_cpu_dtb_walker_cache_mem_side&#45;&gt;system_tol2bus_slave</title>
<path fill="none" stroke="#000000" d="M888.8298,-556.3572C880.628,-550.2321 870.8486,-543.9524 861,-540 772.5659,-504.5104 727.6514,-561.7965 649,-508 636.1785,-499.2303 627.2356,-484.4547 621.3579,-471.2566"/>
<polygon fill="#000000" stroke="#000000" points="624.4441,-469.5527 617.4471,-461.597 617.9557,-472.1797 624.4441,-469.5527"/>
</g>
<!-- system_cpu_dcache_mem_side -->
<g id="node26" class="node">
<title>system_cpu_dcache_mem_side</title>
<path fill="#94918b" stroke="#000000" d="M279,-556.5C279,-556.5 335,-556.5 335,-556.5 341,-556.5 347,-562.5 347,-568.5 347,-568.5 347,-580.5 347,-580.5 347,-586.5 341,-592.5 335,-592.5 335,-592.5 279,-592.5 279,-592.5 273,-592.5 267,-586.5 267,-580.5 267,-580.5 267,-568.5 267,-568.5 267,-562.5 273,-556.5 279,-556.5"/>
<text text-anchor="middle" x="307" y="-570.8" font-family="Arial" font-size="14.00" fill="#000000">mem_side</text>
</g>
<!-- system_cpu_dcache_mem_side&#45;&gt;system_tol2bus_slave -->
<g id="edge17" class="edge">
<title>system_cpu_dcache_mem_side&#45;&gt;system_tol2bus_slave</title>
<path fill="none" stroke="#000000" d="M331.7084,-556.4911C340.1265,-550.7983 349.7512,-544.7574 359,-540 432.7217,-502.0791 524.933,-470.6101 575.1762,-454.699"/>
<polygon fill="#000000" stroke="#000000" points="576.4493,-457.9678 584.9431,-451.6349 574.3539,-451.2888 576.4493,-457.9678"/>
</g>
</g>
</svg>
